<?xml version="1.0" encoding="UTF-8" standalone="no"?>
<!-- Created with Inkscape (http://www.inkscape.org/) -->

<svg
   height="1000"
   width="1000"
   sodipodi:docname="Typography_Canvas.svg"
   version="1.1"
   id="svg93"
   viewBox="0 0 1000 1000"
   xmlns:inkscape="http://www.inkscape.org/namespaces/inkscape"
   xmlns:sodipodi="http://sodipodi.sourceforge.net/DTD/sodipodi-0.dtd"
   xmlns="http://www.w3.org/2000/svg"
   xmlns:svg="http://www.w3.org/2000/svg"
   xmlns:rdf="http://www.w3.org/1999/02/22-rdf-syntax-ns#"
   xmlns:cc="http://creativecommons.org/ns#"
   xmlns:dc="http://purl.org/dc/elements/1.1/">
  <sodipodi:namedview
     id="base"
     pagecolor="#ffffff"
     bordercolor="#000000"
     borderopacity="0.3"
     inkscape:pageopacity="0.0"
     inkscape:pageshadow="2"
     inkscape:zoom="0.5"
     inkscape:cx="500"
     inkscape:cy="500"
     inkscape:document-units="px"
     inkscape:current-layer="layer1"
     showgrid="false"
     showguides="true"
     inkscape:window-width="1280"
     inkscape:window-height="737"
     inkscape:window-x="0"
     inkscape:window-y="0"
     inkscape:window-maximized="1"
     showborder="true"
     inkscape:showpageshadow="false"
     inkscape:pagecheckerboard="0"
     inkscape:deskcolor="#d1d1d1">
    <sodipodi:guide
       id="guide_baseline"
       inkscape:label="baseline"
       position="0,253"
       orientation="0,1"
       inkscape:locked="false" />
    <sodipodi:guide
       id="guide_ascender"
       inkscape:label="ascender"
       position="0,945"
       orientation="0,1"
       inkscape:locked="false" />
    <sodipodi:guide
       id="guide_caps"
       inkscape:label="caps"
       position="0,896"
       orientation="0,1"
       inkscape:locked="false" />
    <sodipodi:guide
       id="guide_xheight"
       inkscape:label="xheight"
       position="0,729"
       orientation="0,1"
       inkscape:locked="false" />
    <sodipodi:guide
       id="guide_descender"
       inkscape:label="descender"
       position="0,28"
       orientation="0,1"
       inkscape:locked="false" />
  </sodipodi:namedview>
  <defs
     id="defs4" />
  <metadata
     id="metadata7">
    <rdf:RDF>
      <cc:Work
         rdf:about="">
        <dc:format>image/svg+xml</dc:format>
        <dc:type
           rdf:resource="http://purl.org/dc/dcmitype/StillImage" />
      </cc:Work>
    </rdf:RDF>
  </metadata>
  <g
     id="layer1"
     inkscape:groupmode="layer"
     inkscape:label="Layer 1">
    <path
       style="fill:#030303;stroke:none"
       d="m 502,60.4244 c -33.491,4.3974 -66.045,6.795 -99,15.4599 C 318.281,98.1592 239.908,146.08 181.17,211 143.721,252.39 115.068,300.288 94.3997,352 76.7557,396.144 68.1426,442.801 64.9105,490 52.7221,667.986 155.774,838.591 313,919.742 396.945,963.069 494.76,978.278 588,965.718 805.256,936.451 974.392,750.529 983.961,532 993.259,319.648 842.956,125.365 638,74.1265 595.569,63.5189 545.807,54.6724 502,60.4244 m -3,10.8611 c 37.35,-4.407 78.382,0.9898 115,8.3148 C 823.57,121.523 984.711,318.875 969.911,535 966.009,591.972 952.562,647.014 928.691,699 864.221,839.405 725.635,932.521 574,950.714 c -46.833,5.62 -94.85,2.318 -141,-6.914 -44.232,-8.848 -87.742,-25.046 -127,-47.224 -35.578,-20.1 -69.03,-44.685 -97.961,-73.615 C 81.4996,696.421 44.6368,498.473 116.86,335 138.728,285.503 169.734,239.345 208.039,201.039 261.623,147.456 330.016,107.712 403,87.4244 434.747,78.5998 466.478,75.1229 499,71.2855 m 14,49.1385 c -35.46,4.656 -69.397,6.848 -104,17.602 -91.744,28.51 -171.795,92.637 -219.573,175.974 -41.404,72.222 -56.423,153.76 -48.597,236 1.47,15.448 0.944,30.78 4.836,46 1.424,5.568 5.43,9.606 7.174,15 14.931,46.164 34.152,89.159 63.814,128 C 299.854,847.943 439.087,906.59 575,888.718 762.793,864.025 909.332,703.962 913.985,514 918.241,340.273 798.487,182.049 632,134.86 595.52,124.519 551.01,115.434 513,120.424 M 484,547 h 1 c 7.103,-24.608 27.594,-48.901 41.667,-70 37.912,-56.841 82.127,-112.56 130.334,-161 15.324,-15.398 30.688,-30.913 47.999,-44.116 7.216,-5.504 15.872,-12.647 25,-14.504 13.035,-2.653 29.699,5.646 41,11.376 34.173,17.329 68.474,50.31 85,85.244 -23.113,7.309 -46.345,11.591 -69,21.012 -65.937,27.418 -126.908,69.415 -180,116.822 -26.926,24.043 -63.271,55.199 -76,90.166 69.778,-68.339 154.752,-134.864 246,-171.799 21.962,-8.89 44.436,-17.103 68,-20.472 6.351,-0.908 18.67,-4.395 24.482,-0.701 8.76,5.567 14.645,25.454 17.377,34.972 9.949,34.66 9.141,70.286 9.141,106 -23.839,-1.024 -46.895,-5.016 -71,-3.961 -51.462,2.254 -102.972,16.925 -150,37.385 -30.998,13.486 -56.457,33.322 -85,50.649 -12.489,7.582 -26.915,12.631 -40,19.174 -9.999,4.999 -20.066,9.884 -30,15.011 -4.332,2.236 -9.077,6.204 -14,6.895 -7.173,1.006 -17.997,-5.462 -25,-7.443 -13.836,-3.915 -28.639,-5.605 -43,-4.621 -10.2,0.7 -20.401,3.184 -30,6.603 -4.551,1.621 -11.109,6.238 -16,5.396 -5.206,-0.897 -10.582,-5.571 -15,-8.277 -11.155,-6.834 -22.115,-13.887 -33,-21.144 C 292.156,591.104 251.28,542.023 213.35,493 c -11.174,-14.442 -22.34,-28.952 -32.691,-44 -3.109,-4.519 -9.968,-11.039 -8.914,-17 1.923,-10.867 11.264,-23.615 16.859,-33 17.902,-30.028 40.668,-57.858 67.396,-80.41 8.644,-7.293 17.822,-13.752 27,-20.335 2.789,-2 6.979,-6.336 10.581,-3.608 5.164,3.911 4.929,16.499 5.329,22.353 1.455,21.246 2.582,42.715 3.105,64 1.364,55.528 12.814,129.388 49.985,173 -4.036,-29.944 -16.795,-59.147 -22.389,-89 -8.596,-45.879 -8.878,-93.604 -5.701,-140 1.026,-14.973 0.975,-30.023 2,-45 0.395,-5.754 -0.928,-12.312 1.238,-17.816 2.794,-7.096 16.405,-12.207 22.852,-15.431 25.556,-12.778 52.935,-18.447 81,-22.177 8.55,-1.137 17.383,-0.594 26,-0.576 2.637,0.005 7.03,-0.64 8.382,2.318 2.941,6.432 -5.698,20.733 -8.232,26.682 -9.703,22.781 -18.904,46.029 -25.266,70 -15.252,57.476 -22.04,116.614 -17.974,176 1.152,16.822 1.119,34.512 5.09,51 9.149,-28.931 11.028,-62.092 16.424,-92 10.203,-56.549 24.009,-113.585 45.376,-167 10.878,-27.193 23.667,-59.169 44.088,-80.772 7.454,-7.885 26.441,-4.319 36.112,-3.398 32.941,3.137 66.062,7.294 98,16.461 9.45,2.712 19.206,5.16 28,9.69 3.023,1.558 8.046,4.114 8.147,8.059 0.21,8.138 -14.028,16.857 -19.147,21.96 -19.083,19.022 -39.856,36.753 -57.714,57 -42.187,47.83 -79.675,97.394 -107.544,155 -10.666,22.044 -23.147,47.564 -26.742,72 m -40,145 c -17.244,11.623 -35.066,22.327 -52,34.427 -5.993,4.283 -15.534,14.593 -23,15.427 -4.772,0.534 -11.107,-5.118 -15,-7.454 -12.371,-7.423 -24.778,-14.784 -37,-22.45 -41.35,-25.934 -82.313,-52.371 -122,-80.81 -10.44,-7.481 -20.892,-15.004 -31,-22.93 -4.093,-3.21 -9.876,-6.318 -11.982,-11.299 -11.996,-28.365 -5.795,-70.827 3.649,-98.911 2.596,-7.72 8.449,-28.782 19.333,-27.497 6.283,0.742 10.627,7.866 13.989,12.497 8.768,12.077 17.212,24.403 26.622,36 31.693,39.059 69.814,71.395 110.389,100.848 25.785,18.717 53.392,34.903 81,50.731 11.048,6.333 28.755,11.802 37,21.421 m 39.333,-144.333 0.334,0.666 -0.334,-0.666 M 482,550 l 1,1 -1,-1 m -129.667,4.667 0.334,0.666 -0.334,-0.666 M 884,556 c 2.719,21.513 0.945,45.32 -8.756,65 -3.158,6.407 -7.602,15.56 -14.259,18.972 -8.908,4.567 -24.113,-0.742 -33.985,0.198 -30.559,2.908 -60.637,4.776 -91,10.254 -87.623,15.81 -179.158,47.06 -254,95.92 -18.393,12.008 -37.141,25.043 -51.714,41.656 -5.166,5.89 -10.207,12.101 -13.974,19 -1.855,3.399 -3.043,8.871 -6.537,10.972 -7.916,4.761 -26.307,0.595 -33.775,-3.49 -13.27,-7.257 -20.711,-21.21 -24.116,-35.482 -1.011,-4.238 -3.237,-10.604 -0.856,-14.7 5.582,-9.604 22.026,-17.749 30.972,-24.16 26.609,-19.067 53.929,-37.098 82,-53.94 C 592.441,609.137 732.941,554.75 884,556 m -354,26 1,1 -1,-1 m -88,203 v -2 c 19.889,-13.997 37.83,-29.554 59,-41.989 6.066,-3.563 16.723,-12.34 24,-11.516 10.741,1.215 22.953,9.486 33,13.505 3.852,1.541 9.267,2.714 11.775,6.275 16.344,23.196 -1.689,54.896 -19.775,70.135 -4.795,4.04 -11.589,10.684 -18,11.808 -6.971,1.223 -19.992,-8.256 -26,-11.642 -21.112,-11.9 -43.062,-22.355 -64,-34.576 z"
       id="path281" />
  </g>
</svg>
