<?xml version="1.0" encoding="UTF-8" standalone="no"?>
<!-- Created with Inkscape (http://www.inkscape.org/) -->

<svg
   width="1023.9999"
   height="1023.9999"
   viewBox="0 0 270.93333 270.93333"
   version="1.1"
   id="svg5"
   inkscape:export-filename="pr.svg"
   inkscape:export-xdpi="96"
   inkscape:export-ydpi="96"
   xmlns:inkscape="http://www.inkscape.org/namespaces/inkscape"
   xmlns:sodipodi="http://sodipodi.sourceforge.net/DTD/sodipodi-0.dtd"
   xmlns="http://www.w3.org/2000/svg"
   xmlns:svg="http://www.w3.org/2000/svg">
  <sodipodi:namedview
     id="namedview7"
     pagecolor="#ffffff"
     bordercolor="#000000"
     borderopacity="0.25"
     inkscape:showpageshadow="2"
     inkscape:pageopacity="0.0"
     inkscape:pagecheckerboard="0"
     inkscape:deskcolor="#d1d1d1"
     inkscape:document-units="mm"
     showgrid="false" />
  <defs
     id="defs2" />
  <g
     inkscape:label="Layer 1"
     inkscape:groupmode="layer"
     id="layer1">
    <path
       style="display:none;fill:#080504;stroke:none;stroke-width:0.267194"
       d="m 136.49927,3.7431917 c -3.76028,0.3436667 -6.70767,2.5628264 -10.66444,2.5436802 -2.18702,-0.010577 -5.53592,-2.2000937 -7.41979,-1.6884764 -0.93901,0.2550321 -1.83082,1.2498286 -2.71144,1.709979 -2.30938,1.2066896 -4.76726,2.31481 -7.19849,3.2437062 C 99.328624,13.058049 89.907128,15.373823 81.310788,20.326036 74.871332,24.03573 69.419403,29.486065 63.447849,33.899319 58.204677,37.77434 51.277589,40.714814 46.765464,45.42932 c -4.902977,5.122867 -9.957656,11.627472 -13.314289,17.894556 -1.765497,3.296352 -2.820558,6.86798 -4.495728,10.175578 -2.198901,4.341758 -5.397887,8.168311 -7.60004,12.585583 -2.743561,5.503381 -4.237143,11.329166 -6.055936,17.137813 -1.806077,5.76795 -3.213809,11.65987 -5.106774,17.4056 -1.0187212,3.09231 -2.8443405,6.34421 -2.9892703,9.64002 -0.2530672,5.75348 0.4698753,11.43012 1.0106692,17.13781 1.8649981,19.68305 7.1326441,39.20837 18.4482301,55.6979 4.147535,6.04376 10.246262,10.62651 15.144706,16.0667 6.573828,7.30071 12.673089,15.35843 20.307762,21.60302 5.532712,4.52546 12.872514,7.48922 19.195994,10.71971 5.883839,3.00581 11.72582,6.64598 17.862936,9.08973 5.298096,2.10983 11.313366,2.05574 16.796486,3.50334 2.21421,0.58457 4.46441,0.98971 6.66528,1.63667 0.89528,0.26322 1.70471,0.99479 2.66611,0.934 4.55371,-0.28839 8.65686,-2.86254 13.33056,-3.00098 6.79031,-0.20137 13.76353,0.64427 20.52904,0.008 2.84394,-0.26777 5.45806,-1.68379 8.26495,-2.10367 6.70766,-1.00336 13.29375,-0.78378 19.72921,-3.17156 2.78182,-1.03228 5.21891,-3.07891 7.73172,-4.61998 5.02268,-3.08025 10.08163,-6.04804 14.93021,-9.40304 8.99013,-6.22049 18.16048,-12.20293 25.83755,-20.11765 4.61077,-4.75386 7.73199,-9.96671 11.56319,-15.25292 3.51233,-4.84598 7.61787,-9.47882 10.09202,-14.99559 2.94766,-6.57288 1.80549,-13.72283 3.34064,-20.61893 1.93267,-8.68191 4.78513,-17.33838 5.64282,-26.24228 0.41618,-4.31739 -0.55268,-8.35496 -0.7441,-12.58558 -0.68147,-15.08074 -2.47949,-29.49177 -8.06313,-43.647879 C 252.07435,77.18415 243.43721,66.444631 234.42176,55.023081 227.25633,45.945931 220.04503,36.850303 210.08391,30.710948 199.62076,24.262444 187.48383,21.31174 175.9577,17.510145 169.75313,15.463703 163.41391,13.205126 157.56181,10.291912 156.06078,9.5446757 155.53823,7.9552777 154.09159,7.1609934 148.946,4.3360657 142.40923,3.2034167 136.49927,3.7435257 M 150.62965,38.95638 c -1.41544,2.637616 -5.63589,4.53322 -7.99833,6.334029 -6.8407,5.21418 -15.97613,10.860822 -19.89531,18.837137 -2.03745,4.146815 4.5697,6.162115 6.70739,8.593007 5.04296,5.734206 2.0865,15.066549 -3.87519,18.838475 -1.33972,0.847519 -4.83712,2.312802 -6.37066,1.480011 -1.47757,-0.802264 -2.29712,-3.392216 -3.06044,-4.811441 -1.65885,-3.083736 -3.8048,-6.524152 -7.09878,-8.055845 -5.61856,-2.612981 -9.156216,2.993226 -14.39699,2.076622 -6.800981,-1.189538 -9.608662,-12.794784 -11.058493,-18.388942 -0.468968,-1.809914 -1.707377,-4.261157 -1.363715,-6.158902 0.234084,-1.291763 1.625794,-2.184268 2.5576,-2.966984 2.260594,-1.899085 4.485197,-3.86431 6.619952,-5.904513 2.246464,-2.147315 4.331629,-4.739677 6.97721,-6.404991 6.944416,-4.371214 14.081856,-2.001108 21.595486,-2.425804 1.71111,-0.09666 3.32944,-0.898128 5.06561,-1.018361 8.44597,-0.584025 17.12683,-0.02383 25.59466,-0.02383 m 67.18598,37.48897 c -3.01457,-0.0021 -5.84171,-0.86546 -8.79817,-1.29337 -7.05585,-1.021574 -14.19543,-2.187749 -21.32887,-2.187749 -3.80695,0 -8.27135,-0.100418 -11.72689,1.786885 -2.79755,1.527676 -1.75484,5.04066 -1.24774,7.585358 1.0979,5.509807 -0.0184,11.721997 -6.7546,12.022176 -2.98071,0.132819 -9.31858,-2.267814 -10.91985,-4.93087 -0.71399,-1.187329 0.45884,-3.671776 0.67266,-4.94908 0.60575,-3.619827 0.92594,-6.866907 -0.16104,-10.443355 -1.61779,-5.322363 -7.29234,-7.684971 -9.96218,-12.317805 -3.21213,-5.574342 0.86062,-12.595758 3.73389,-17.405593 0.91341,-1.529015 1.98812,-4.155117 3.60032,-5.039589 2.58718,-1.419226 9.22313,1.648176 11.70316,2.705633 11.1374,4.748782 20.26963,12.144016 30.12704,18.967277 5.05708,3.500398 10.57992,6.181127 15.46343,9.97019 1.98679,1.541869 4.51267,3.19058 5.59884,5.529892 M 81.044178,58.503866 c -0.05945,2.89281 -1.008057,5.727511 -1.483692,8.568907 -1.061644,6.343938 -2.215804,12.650386 -3.120948,19.012264 -0.581745,4.089778 -1.2768,9.838444 0.757176,13.656693 2.586927,4.8567 7.093452,1.27838 11.045961,1.0829 5.023485,-0.2485 10.861201,6.16346 11.173669,10.96713 0.20582,3.16675 -1.397042,5.88792 -2.830077,8.5689 -0.493496,0.92277 -1.044582,2.37333 -2.031842,2.87273 -1.03845,0.52512 -2.884998,-0.38586 -3.912251,-0.69943 -2.966581,-0.90563 -6.197373,-2.67404 -9.331386,-1.5724 -5.722272,2.01156 -6.313349,8.36567 -10.931052,11.47082 -5.521248,3.71275 -15.070988,-2.32511 -19.995827,-4.87061 -1.470094,-0.75969 -5.046147,-1.89668 -5.70361,-3.50255 -0.407915,-0.99693 0.101579,-2.41535 0.258346,-3.43077 0.374322,-2.42473 0.618004,-4.82537 1.123233,-7.23002 0.707051,-3.36491 0.330863,-7.5717 1.767098,-10.71114 3.438215,-7.516534 10.613785,-12.946007 14.055199,-20.618929 0.968065,-2.158293 1.45383,-4.618106 2.567465,-6.694459 2.361907,-4.404151 6.609554,-8.190804 10.204271,-11.561062 1.929996,-1.809111 3.926913,-4.262229 6.388267,-5.308974 M 235.41195,140.71183 c -2.26033,-1.36112 -3.67949,-4.56616 -5.17864,-6.69447 -4.3687,-6.20175 -9.15676,-15.73063 -16.68346,-18.55034 -3.02524,-1.13351 -6.52743,-0.98409 -9.0637,1.20178 -3.76776,3.24682 -4.31164,10.07383 -10.66552,8.92292 -0.82355,-0.14889 -1.65085,-0.40274 -2.3995,-0.78004 -0.99952,-0.50369 -1.87907,-1.22482 -2.63837,-2.04502 -1.10724,-1.19617 -4.39562,-5.41287 -3.83813,-7.1387 0.40311,-1.24759 2.78875,-2.32754 3.8104,-3.03956 3.01777,-2.1026 7.54349,-4.41272 8.91654,-8.02665 1.98625,-5.227575 -2.88447,-10.504951 -1.92387,-15.79893 0.37779,-2.080906 2.7253,-3.411229 4.4716,-4.211082 4.25592,-1.949694 8.81949,-3.115333 13.33055,-4.326495 1.6322,-0.438354 4.10821,-1.620327 5.80972,-1.261236 1.24615,0.263226 1.93213,2.330207 2.33232,3.372133 1.26614,3.295816 1.45143,7.031323 3.02817,10.175577 2.83327,5.649053 7.9674,10.463973 9.72409,16.602253 1.17496,4.10665 0.7012,8.62327 0.7012,12.85336 0,6.25638 0.2666,12.50526 0.2666,18.7445 M 138.63216,93.127607 c 3.91411,-0.560192 7.90847,0.318924 11.73088,1.0114 4.72995,0.85689 9.01411,2.807656 13.06394,5.358783 19.24292,12.12179 25.98018,38.8209 13.84644,58.35185 -2.96738,4.77636 -7.0188,8.63424 -11.6005,11.81706 -4.71956,3.27894 -10.43117,5.49561 -16.10972,6.35598 -8.24681,1.24946 -16.81142,0.55779 -24.52821,-2.75677 -18.15354,-7.79771 -29.154709,-27.64089 -24.5386,-47.01411 1.07844,-4.52573 2.58985,-8.59998 5.02561,-12.58559 3.14041,-5.13866 7.44537,-9.62636 12.3145,-13.14149 6.2299,-4.497876 13.3428,-6.330284 20.79566,-7.397113 m -1.33306,4.853216 c -5.65775,0.74844 -11.24218,2.417507 -15.99666,5.703677 -5.74414,3.97009 -10.5874,9.03538 -13.72461,15.33728 -8.662715,17.40131 -1.25733,39.00111 15.32427,48.50189 7.10226,4.06942 15.92202,5.43911 23.995,4.46895 5.22237,-0.62767 10.45488,-2.23729 14.93022,-5.05191 5.19358,-3.26663 9.53374,-7.53394 12.67655,-12.83997 15.33227,-25.88533 -7.71493,-60.020377 -37.20477,-56.119917 M 44.251855,125.98401 c 2.153684,1.65943 3.598716,4.49654 5.178653,6.69447 4.347093,6.0475 8.319864,12.53871 13.473721,17.94007 2.324582,2.43625 4.760607,5.03691 8.008729,6.2138 7.887687,2.85773 9.733702,-7.76263 15.46344,-10.246 2.446156,-1.06014 6.301618,0.59554 8.264675,2.05519 2.2374,1.66344 3.713359,4.41915 4.436674,7.06587 0.235147,0.86064 0.821697,1.98264 0.310867,2.84113 -0.720382,1.21036 -2.819144,1.9272 -3.947441,2.72089 -2.49308,1.75341 -4.948834,3.95108 -6.291221,6.75579 -2.186743,4.56856 1.163491,8.9778 -0.119441,13.38891 -0.775572,2.66654 -3.008439,4.52787 -5.244239,5.98378 -5.105868,3.32474 -12.60377,6.71294 -18.738757,7.26536 -1.747369,0.15719 -3.162273,-1.96549 -4.265776,-3.07356 -3.326506,-3.33973 -6.672741,-5.91602 -8.941868,-10.17558 -5.578568,-10.47147 -5.649487,-22.32842 -7.71199,-33.74007 -0.57588,-3.18656 -1.799624,-6.38866 -1.984119,-9.64002 -0.126908,-2.23809 0.580945,-4.50322 0.924607,-6.69446 0.28474,-1.81553 0.288207,-3.70069 1.183486,-5.35557 m 158.100335,85.68908 c 0.16103,-3.76898 1.36291,-7.54975 2.05024,-11.24669 0.99126,-5.33227 1.48503,-10.69373 1.99425,-16.0667 0.39858,-4.20627 0.9222,-10.35098 -1.22294,-14.18824 -1.67379,-2.99376 -6.60823,-0.39524 -9.22022,-0.0806 -5.17145,0.62339 -13.54704,-4.88883 -13.5473,-10.63455 -2.7e-4,-1.53705 0.85715,-3.00019 1.60046,-4.28445 0.87209,-1.50679 1.82762,-4.51984 3.46435,-5.32424 1.22294,-0.6009 3.48834,0.46647 4.74994,0.71845 3.52833,0.70452 7.14784,1.61068 10.66444,0.45227 5.5759,-1.83642 5.18052,-8.08797 9.33166,-11.22928 4.6089,-3.48808 13.25856,1.85677 17.59605,4.07077 1.45783,0.74416 3.22813,1.40878 4.51666,2.41884 1.55781,1.22133 0.83663,2.91129 0.81664,4.60873 -0.0515,4.33293 -0.30474,8.81714 -0.78757,13.12115 -0.59482,5.30414 -1.58475,10.34186 -2.77249,15.53114 -0.64573,2.82104 -1.29467,6.4465 -3.05377,8.81258 -1.2488,1.67951 -3.50753,2.82855 -5.11813,4.15431 -3.39209,2.79267 -6.65674,5.74572 -9.86461,8.74698 -3.54113,3.31322 -6.84124,8.17983 -11.19766,10.41953 m -75.71753,23.29672 c 3.20387,-1.63345 6.13498,-4.35943 9.06477,-6.46418 5.91344,-4.24883 11.89859,-8.4634 17.32865,-13.33777 3.03484,-2.72438 6.85377,-6.19692 8.14123,-10.18923 1.38879,-4.30507 -5.51937,-6.46203 -7.62614,-9.37224 -3.1796,-4.39237 -1.7655,-11.80046 2.41977,-15.02237 2.43763,-1.87659 5.21544,-2.16633 7.99726,-3.18656 2.82555,4.88053 4.97497,11.19448 10.66444,13.5295 5.00509,2.05413 8.32893,-3.06338 13.06395,-2.37439 2.29125,0.33338 3.99782,2.27558 5.2365,4.10825 2.74663,4.06354 4.37482,8.75475 5.86971,13.38893 0.57961,1.79706 1.7239,3.97436 1.66392,5.89112 -0.0805,2.58084 -5.02242,4.65988 -6.9047,5.9669 -7.34832,5.10251 -15.14936,10.35794 -23.46176,13.75658 -2.47496,1.01194 -4.90671,2.05038 -7.46511,2.83149 -1.12564,0.34355 -2.25686,0.82717 -2.93272,-0.32936 -5.06135,1.17608 -10.30079,3.14531 -15.46344,3.70229 -6.47519,0.69891 -12.85919,-0.14808 -19.196,-0.70345 -1.01632,-0.0892 -1.87748,0.55778 -2.93272,0.3931 -6.88336,-1.07487 -14.15411,-4.60606 -20.26244,-7.81404 -7.188092,-3.77514 -14.717455,-7.80252 -20.795652,-13.29707 -6.04034,-5.46 -11.441347,-13.1206 -15.730051,-20.03758 4.159665,0.0345 8.449703,1.2805 12.530718,2.01824 4.593975,0.83037 9.241004,1.04434 13.863773,1.50866 4.507326,0.45255 9.375102,0.83681 13.597152,-1.34076 7.22677,-3.72721 2.07398,-11.30641 4.6841,-16.91369 1.57033,-3.37401 6.12804,-4.09942 9.44629,-4.25661 1.08591,-0.0514 2.14621,0.31491 3.19933,0.53208 1.71964,0.35454 5.01975,1.70361 5.33409,3.72426 0.19569,1.25722 -1.06112,3.11534 -1.48529,4.28446 -1.06005,2.92066 -1.89774,6.04081 -1.00513,9.10446 1.78576,6.12972 8.81577,7.8917 11.22966,13.38892 1.14083,2.59772 -0.0293,6.05259 -0.91208,8.5689 -2.26913,6.46793 -5.87263,12.00692 -9.16208,17.94116 m -0.53323,0.26778 0.26661,0.26777 z"
       id="path315" />
    <path
       style="display:none;fill:#070503;stroke:none;stroke-width:0.264583"
       d="m 116.99356,2.1485118 c -3.3774,1.398307 -6.52118,3.7845575 -10.05417,5.1769537 C 97.214104,11.15814 87.198038,13.537829 78.099811,18.929349 71.73473,22.70117 66.430364,28.273109 60.372729,32.534223 55.298814,36.103452 49.125821,39.046677 44.573136,43.250906 39.121925,48.284868 33.667011,55.870208 30.235365,62.441664 c -1.657455,3.173941 -2.636731,6.624637 -4.257039,9.789582 -2.295446,4.483629 -5.711534,8.294688 -7.857278,12.964583 -4.100274,8.923602 -6.133121,18.229261 -9.0850243,27.516661 -1.5340277,4.82627 -4.5022503,10.60847 -4.9917771,15.61042 -0.6456733,6.59765 0.3629898,13.30087 0.9856549,19.84375 1.8132292,19.0537 7.2148825,38.24922 18.0880135,54.23958 4.489291,6.60215 11.011323,11.48133 16.277325,17.4625 6.484673,7.36573 12.784666,15.37917 20.448322,21.57227 5.674518,4.58576 13.120687,7.52951 19.579166,10.83257 6.140978,3.14087 12.468753,7.36494 19.049999,9.46653 4.392343,1.40255 9.214383,1.93013 13.758333,2.69372 3.66316,0.61516 7.11306,1.72112 10.84792,1.97776 5.18133,0.35454 10.42193,-0.19579 15.61041,0.0344 5.22023,0.23018 10.287,1.77271 15.61042,1.01071 1.76953,-0.254 3.20939,-1.96057 4.7625,-2.76755 2.18704,-1.13559 5.00539,-1.80049 7.40833,-2.31007 6.89954,-1.46315 13.99196,-0.49768 20.6375,-3.36762 6.52727,-2.81861 12.78837,-7.69937 18.78542,-11.5107 13.53925,-8.60478 26.7036,-18.03744 36.95647,-30.54244 1.7772,-2.16746 2.79717,-4.87838 4.44791,-7.14375 3.68617,-5.0583 7.93459,-9.91235 10.63386,-15.61041 3.46499,-7.31494 2.60245,-16.45973 4.17619,-24.34167 1.59861,-8.00708 4.57888,-15.85198 5.14535,-24.07708 0.30348,-4.40902 -0.83397,-8.39126 -1.02447,-12.7 -0.27093,-6.13807 -0.22278,-12.15893 -1.1848,-18.25625 C 261.77541,94.112816 252.99865,75.528219 239.59459,59.486268 231.07924,49.295312 223.64022,38.038615 212.50814,30.434755 197.24353,20.007897 178.0369,17.177702 161.17898,10.267288 158.87975,9.3247629 156.68662,7.7739871 154.29981,7.0880284 148.44405,5.4049874 142.32053,4.7629496 136.30814,4.1884333 c -2.21747,-0.2119047 -4.19602,-1.1874234 -6.35,-1.4868788 -1.44621,-0.2010463 -2.80405,0.3981449 -4.23333,0.4630208 -1.77059,0.08038 -3.56738,0.060431 -5.29167,-0.3807354 -1.02896,-0.2632895 -2.37886,-1.0744967 -3.43958,-0.6353281 m 32.54375,33.5702362 c -1.79546,3.421856 -6.49367,5.926402 -9.26042,8.609277 -7.29959,7.077868 -14.10176,14.511866 -20.8571,22.082388 -1.92246,2.154502 -4.02881,4.527021 -5.68828,6.879431 -0.93001,1.318419 -2.02776,3.472921 -3.61712,3.968486 -0.51831,3.163887 -4.65296,7.044001 -6.53282,9.60067 -4.560362,6.201304 -8.896618,12.88362 -12.665078,19.55879 -10.063162,17.82445 -17.749043,36.80857 -19.152393,57.35929 -0.23204,3.3983 0.527579,6.459 0.75565,9.78958 0.479954,7.00484 1.39356,14.20865 3.8354,20.8571 5.877189,16.00359 17.625747,30.17176 33.570071,36.87868 5.71129,2.40242 11.80544,3.34143 17.91626,3.93938 4.00552,0.39212 7.80229,1.03214 11.90625,0.74295 19.37014,-1.36525 37.06362,-11.23606 48.00626,-27.49311 2.97048,-4.41325 6.01186,-9.16411 7.50649,-14.31105 2.51487,-8.66034 4.63815,-18.3814 3.43959,-27.49312 -2.18202,-16.58567 -11.16674,-29.91617 -20.80763,-43.13105 -3.09642,-4.24444 -5.77453,-8.81115 -8.86963,-13.03628 -5.56313,-7.59354 -11.48186,-15.595073 -14.60341,-24.530581 -4.57068,-13.08391 -5.96238,-25.217172 -3.36709,-38.893748 0.40984,-2.159794 0.95938,-4.724929 1.12422,-6.879166 0.0807,-1.057011 0.15901,-3.259138 0.95991,-4.037013 1.01362,-0.984514 3.42159,-0.309033 4.60295,0.0037 4.29472,1.137443 8.21637,4.061354 12.17084,6.038585 9.80228,4.901141 17.82365,11.62341 26.98749,17.45853 7.34325,4.675981 15.77473,8.580702 21.38627,15.461191 4.08438,5.007768 3.96796,10.621168 6.56167,16.139583 2.7813,5.916876 8.07852,10.590749 9.94436,16.933339 1.36129,4.62756 0.3392,9.32894 0.5715,14.02291 0.57309,11.57738 0.77894,23.38943 -0.31882,34.92499 -0.69532,7.30621 -1.18507,14.27427 -2.98318,21.43125 -0.76808,3.0578 -1.33958,6.51167 -2.98688,9.25645 -1.24354,2.07275 -4.09998,3.53007 -5.98117,5.00062 -3.30888,2.58631 -6.53838,5.54699 -9.525,8.49817 -3.38269,3.34248 -6.61458,6.95986 -10.31875,9.95362 -7.66947,6.19891 -16.5854,11.46704 -25.13541,16.32797 -5.72135,3.25305 -12.37986,6.97494 -18.78542,8.66245 -3.47795,0.91599 -7.29297,0.42572 -10.84791,0.51302 -4.2725,0.10452 -8.65929,0.60457 -12.96459,0.8001 -2.8313,0.12885 -5.28346,2.00422 -8.20208,1.79308 -5.22473,-0.37809 -10.70319,-2.41379 -15.61042,-4.1992 -12.630147,-4.59502 -25.971496,-11.4345 -35.450193,-21.1521 -5.501746,-5.64013 -9.414404,-12.7217 -14.414235,-18.78542 -3.544623,-4.29921 -8.272198,-7.28477 -11.433704,-11.90625 -6.661149,-9.73693 -7.586133,-23.79874 -8.860631,-35.18958 -0.39661,-3.54463 -1.980935,-7.0059 -2.068512,-10.58333 -0.107421,-4.37701 1.217083,-8.70585 1.990196,-12.96459 0.750358,-4.13305 1.140089,-8.31559 1.973527,-12.43541 0.663046,-3.27792 0.349779,-7.20064 1.589881,-10.31875 2.177521,-5.475294 7.699375,-10.194931 10.973858,-15.081256 2.795322,-4.171421 3.719247,-9.503039 6.471179,-13.493749 5.631126,-8.166364 13.797226,-14.501812 21.182805,-20.977489 4.244975,-3.721893 8.158426,-8.74686 12.964582,-11.707018 2.440782,-1.503098 5.255947,-1.544637 7.672917,-2.81305 2.56223,-1.344877 3.97404,-3.73671 6.87917,-4.735512 4.31456,-1.483519 8.99742,-1.041929 13.49375,-1.041929 3.81238,0 7.88696,-0.369094 11.64166,0.400843 4.46696,0.915988 8.61907,2.939521 13.22917,3.303323 m 19.57917,98.424997 c 1.79572,-0.50958 2.89163,0.67496 4.12009,1.87325 2.4458,2.38628 4.5212,5.38163 6.00842,8.4455 4.28651,8.831 8.92598,19.79242 5.68298,29.63333 -0.83555,2.53551 -1.11627,4.35849 -3.13531,6.33016 -7.05802,6.89293 -22.30226,2.10688 -20.27925,-8.97493 0.56462,-3.09298 2.1127,-6.27909 3.13875,-9.26147 1.6174,-4.70218 2.69902,-9.44219 3.79201,-14.2875 1.00515,-4.45532 2.091,-9.21174 0.67231,-13.75834 z"
       id="path448" />
    <path
       style="display:none;fill:#080504;stroke:none;stroke-width:0.264583"
       d="m 133.45996,1.2057406 c -3.25861,0.8376734 -6.04255,3.013014 -9.525,3.268284 -1.73037,0.1268677 -3.60257,0.1342495 -5.29167,-0.2754048 -1.26894,-0.3077633 -2.64451,-1.1193727 -3.96875,-0.8041481 -3.61473,0.860425 -7.01092,3.2510411 -10.58333,4.385839 -9.068065,2.8804653 -18.59571,5.7616723 -26.722916,10.8807773 -6.088063,3.834765 -11.355123,9.024381 -17.197916,13.24131 -5.464175,3.94335 -12.952941,7.160683 -17.349258,12.283016 -4.697147,5.472906 -9.588499,11.386873 -13.070469,17.727083 -1.778926,3.239029 -2.685785,6.820429 -4.407481,10.054166 -2.374503,4.459817 -5.674783,8.320616 -7.868708,12.964583 -3.695832,7.823199 -5.751857,16.087194 -8.1142949,24.341664 -1.0068453,3.5179 -1.9630495,7.13581 -3.1884697,10.58333 -0.8875316,2.49688 -2.3350272,5.28559 -2.5943856,7.9375 -0.648591,6.63178 0.094221,13.52127 0.7210721,20.10834 1.83642,19.29738 7.2711071,38.51645 18.1739771,54.76874 4.551945,6.78551 11.284929,11.93985 16.750955,17.99167 6.414029,7.10115 12.430919,14.98044 19.888729,21.04284 6.707187,5.45227 15.818907,9.08897 23.547915,12.86563 5.121539,2.50243 10.157883,6.01504 15.610416,7.73853 4.842404,1.53062 10.111844,1.83303 15.081254,2.87973 3.1324,0.65881 6.62305,2.29393 9.78958,2.46856 1.68011,0.0926 3.35412,-0.60854 5.02708,-0.68263 3.90525,-0.17198 7.84146,-0.0317 11.75015,-0.0529 4.07776,-0.0238 8.28728,1.59808 12.32694,1.02129 5.04957,-0.71967 9.13632,-4.26561 14.2875,-5.12604 4.54818,-0.75988 9.56601,-0.22542 14.02291,-1.34567 11.02916,-2.7723 20.36313,-10.54761 29.89792,-16.49015 12.16924,-7.58455 23.92203,-16.80978 32.88215,-28.09902 1.59147,-2.00528 2.52783,-4.46669 4.02431,-6.53891 3.89599,-5.39459 8.42248,-10.54021 11.16515,-16.66875 1.7108,-3.8227 1.59438,-7.34642 1.97961,-11.37708 0.39952,-4.18174 1.05622,-8.33358 1.92696,-12.43542 1.71159,-8.06397 4.57677,-16.04274 5.14827,-24.34166 0.2913,-4.23043 -0.83715,-8.0444 -1.02447,-12.17084 C 265.60081,112.31271 261.85351,92.462875 250.8532,74.08333 246.81539,67.337249 241.65126,61.700566 236.82235,55.562497 229.73257,46.550525 222.68248,36.910432 213.09954,30.359613 203.7026,23.936192 192.83457,20.6534 182.14329,17.241599 175.0387,14.974384 167.89601,12.552494 160.97663,9.7383331 156.13449,7.7690394 152.04006,5.3074356 146.95371,3.8572809 142.47537,2.580415 138.32591,-0.04518448 133.45996,1.2057406 M 118.11413,32.619419 c 8.50291,-1.006739 17.51674,0.03598 25.92916,0.936625 4.24921,0.455083 8.85508,0.09181 12.96459,1.554163 2.44131,0.868627 4.3008,2.767806 6.61458,3.880643 5.84279,2.810669 11.66707,5.446712 17.19791,8.875977 5.27077,3.268133 10.02374,7.268633 15.08125,10.83257 7.59249,5.350139 16.77512,8.936302 22.65866,16.442266 4.28889,5.471583 4.41166,12.065264 7.53189,17.991666 2.66753,5.06677 7.12973,9.237131 8.80374,14.816661 1.35785,4.52544 0.69321,9.35594 0.69321,14.02292 0,7.50358 0.26459,14.9778 0.26459,22.48958 0,11.25538 -0.52758,23.26217 -3.59093,34.13125 -0.88291,3.13293 -1.40943,6.33492 -2.94005,9.25936 -0.8173,1.56183 -2.46486,2.35585 -3.78777,3.42318 -2.70114,2.17884 -5.33506,4.41245 -7.9375,6.70771 -4.84479,4.27223 -9.12046,9.15723 -14.02292,13.36279 -3.92271,3.36497 -8.63203,6.12087 -12.96458,8.92704 -8.79581,5.697 -17.49769,10.67011 -27.25208,14.53435 -3.07896,1.22 -5.29564,3.58643 -8.73125,4.0341 -6.91092,0.90012 -14.45842,0.0765 -21.43125,0.0765 -3.09669,0 -6.17353,1.21205 -9.26042,0.70776 -4.16322,-0.68025 -8.48122,-2.56355 -12.43542,-4.00341 -11.616793,-4.23016 -23.820964,-10.35315 -33.072913,-18.70975 -6.589977,-5.95233 -11.203252,-13.90729 -16.638322,-20.8571 -3.686175,-4.71355 -9.095581,-7.80018 -12.192793,-12.96458 -6.04864,-10.08539 -7.128933,-22.69199 -8.516144,-34.13125 -0.554566,-4.57279 -2.185722,-8.84767 -2.071687,-13.49375 0.0844,-3.45334 1.145381,-6.94584 1.779058,-10.31875 0.859631,-4.57438 1.363133,-9.18951 2.237317,-13.75833 0.593196,-3.0996 0.261408,-6.87705 1.554691,-9.78959 2.776538,-6.252893 8.77861,-10.945278 12.114477,-16.933328 2.032,-3.647545 3.076046,-8.240182 5.343789,-11.641666 4.94321,-7.414683 12.37615,-13.332618 19.035447,-19.124611 4.958556,-4.312444 9.481343,-9.681633 14.816666,-13.476816 2.037821,-1.449917 4.356894,-2.058194 6.614584,-3.025775 5.14456,-2.204773 9.99517,-4.113741 15.61042,-4.778375 m -16.13958,20.826412 v 0.264583 c 3.36946,1.261798 7.56205,0.713581 11.11249,1.134004 8.93181,1.057275 18.12185,1.767946 26.72292,4.599781 2.88978,0.951177 6.08595,2.262188 8.14546,4.595283 0.8464,0.959115 1.74228,2.688167 0.91467,3.909483 -1.19301,1.760538 -4.23519,2.456921 -6.14971,3.033448 -4.06427,1.224227 -8.27405,2.017448 -12.43542,2.836069 -1.82827,0.359833 -4.21375,0.359039 -5.82083,1.323181 6.64236,2.862262 14.8164,5.638535 21.96041,3.591189 7.51893,-2.155031 14.54521,-9.060391 22.75417,-6.21612 7.90099,2.737908 12.26238,12.592843 12.98443,20.352013 0.24447,2.628636 0.61118,6.443398 -1.63513,8.392055 -3.07896,2.67044 -7.26625,-4.163749 -8.59128,-6.275388 -1.3335,-2.125662 -2.8411,-4.171421 -4.08094,-6.35 h -0.52916 c -3.76026,12.374558 9.1223,25.110018 18.78541,30.345328 2.79162,1.51262 5.84994,2.58418 8.99583,3.02657 1.01812,0.1434 2.86756,0.0341 3.16389,1.30413 0.35031,1.5023 -0.46514,3.79412 -0.78264,5.27605 -1.11786,5.21865 -3.0943,10.77489 -5.8748,15.34584 -0.84244,1.38456 -3.66819,5.93592 -5.75548,4.62174 -1.83621,-1.1557 -2.44475,-4.23757 -2.72892,-6.20924 -0.87762,-6.09071 2.77151,-11.97028 3.2467,-17.99167 -2.97127,0.70644 -5.10116,4.22725 -6.70163,6.61458 -4.24285,6.32804 -4.14628,14.33804 -4.14628,21.69584 0,4.40425 0.36089,8.26743 -1.43616,12.43541 -2.95778,6.85959 -9.33926,14.42985 -17.08467,15.53104 -5.29828,0.75327 -14.73306,-2.88713 -13.64113,-9.44562 1.3388,-8.04175 11.69591,-11.04212 16.81613,-16.13985 8.13805,-8.10207 12.7,-21.10237 12.7,-32.54348 -3.65258,1.3372 -7.18794,3.98859 -10.58334,5.91238 -7.46892,4.23201 -15.47839,8.35342 -24.07708,9.58479 -7.37314,1.05569 -14.68728,-2.8186 -21.96042,-3.54568 -14.93546,-1.49357 -30.050843,6.7355 -38.478615,18.74017 -17.194476,24.49248 -5.958416,62.50543 22.339035,73.17713 6.48944,2.4474 13.29373,2.22912 20.10833,2.22912 11.02228,0 21.86649,-0.61913 32.80834,-1.80816 9.02837,-0.98108 18.21815,-2.85486 26.72291,-6.07854 2.92365,-1.10808 6.6765,-2.1127 8.99583,-4.28413 -1.71,-0.50536 -3.5306,-0.14182 -5.29166,-0.30957 -5.62002,-0.53472 -11.55436,-0.48392 -17.19792,-0.48418 -3.84281,-2.7e-4 -8.2796,0.0765 -10.02665,-4.23334 -0.9988,-2.4638 2.07963,-4.48812 3.94124,-5.32738 5.20117,-2.34474 11.06064,-3.06308 16.66875,-3.62374 5.19773,-0.51964 10.44627,-0.0564 15.61041,-0.96123 14.95213,-2.6199 27.29944,-10.75346 33.82327,-24.74806 1.76954,-3.79571 3.73566,-7.8994 3.74756,-12.17083 -4.11056,2.8956 -7.31837,6.85164 -11.64166,9.60569 -7.60042,4.84161 -16.49492,7.20302 -25.13542,9.4443 1.39356,-3.67559 5.04349,-6.87784 7.59751,-9.78958 6.55638,-7.47448 14.19754,-14.11896 19.69109,-22.48958 12.94579,-19.72469 8.58625,-43.77214 -2.57096,-63.235414 -2.74029,-4.780492 -5.84544,-11.300089 -10.16556,-14.816666 0.25453,2.538412 1.74414,5.032904 2.63261,7.408333 3.42688,9.162255 9.15643,21.024057 3.18823,30.162497 -2.54027,-3.42979 -3.28666,-9.22364 -4.92205,-13.229165 -3.1324,-7.671329 -7.26757,-14.987851 -12.48859,-21.431249 -15.66492,-19.33178 -41.08397,-27.512961 -65.40394,-26.448013 -9.74514,0.426773 -19.23362,2.281502 -28.83958,3.693848 M 70.753711,90.222912 c 5.383212,-2.264304 9.477374,-8.755326 15.610416,-9.260416 l 2.116666,10.31875 c 1.336146,-0.817298 2.01004,-2.65139 2.804848,-3.96875 1.558925,-2.583921 3.275806,-5.118894 5.245893,-7.408069 3.719246,-4.321439 11.065936,-1.626129 14.139076,-6.354233 0.79983,-1.230841 0.83502,-2.546614 0.82867,-3.964781 -0.0296,-6.679935 -6.36826,-9.785349 -12.435154,-9.215437 -10.455804,0.982133 -19.06561,10.505546 -24.182651,19.00502 -1.910292,3.172883 -3.955256,7.072048 -4.127764,10.847916 m 136.524999,-17.462499 0.26458,0.264583 -0.26458,-0.264583 m -87.57708,13.493749 v 0.529167 c 8.02851,3.463925 10.50343,12.752916 17.72708,16.779871 8.87201,4.94586 25.48678,-3.49779 19.08175,-14.66294 -2.64134,-4.604279 -9.74249,-4.434152 -13.21594,-1.01256 -1.4269,1.405466 -3.54938,4.992423 -5.86581,4.716727 -5.96635,-0.710142 -11.22918,-9.990137 -17.72708,-6.350265 z"
       id="path655" />
    <path
       style="fill:#080605;stroke:none;stroke-width:0.264583"
       d="M 115.4822,7.7223702 C 112.68397,8.38322 109.98839,10.230038 107.28012,11.224025 97.957791,14.645537 88.391781,17.102563 79.763454,22.216271 73.893673,25.69488 68.858123,30.817742 63.359288,34.86428 58.230076,38.638561 51.572101,41.543421 47.068364,46.025727 42.078852,50.991162 37.020548,57.720839 33.71061,63.937753 c -1.729316,3.24829 -2.696633,6.862762 -4.457038,10.054166 -2.351008,4.262438 -5.422953,7.971367 -7.531867,12.435416 -3.93438,8.32829 -5.856896,17.184425 -8.519318,25.929165 -1.525561,5.01068 -4.514162,10.7024 -5.0948695,15.875 -1.0275358,9.15247 0.6099968,19.81835 2.1564595,28.83958 2.793286,16.29463 8.821367,33.21526 19.141069,46.30208 3.649927,4.62862 8.727016,8.40396 12.735454,12.77567 6.457156,7.04242 12.324026,15.08972 19.895872,21.01453 6.826778,5.34168 15.573374,8.84793 23.283332,12.7127 4.615127,2.31352 9.323651,5.5835 14.287499,7.05697 4.724927,1.40229 9.743017,1.75181 14.552087,2.80035 3.05937,0.66701 6.16796,1.88701 9.26041,2.32198 6.5794,0.92525 13.19874,1.11363 19.84375,1.11363 2.96439,0 7.16703,0.73555 9.99887,-0.0841 1.34355,-0.38868 2.75325,-2.21933 4.02405,-2.97075 2.24022,-1.32476 5.13635,-2.09179 7.67291,-2.6289 6.8588,-1.45282 13.76945,-0.54133 20.37292,-3.40148 6.28359,-2.72177 12.51717,-7.44326 18.25625,-11.19664 12.60845,-8.246 24.75547,-16.79548 34.54426,-28.40143 1.93384,-2.29288 3.11468,-4.96967 4.81806,-7.40833 3.78593,-5.42052 8.87228,-10.61297 11.14928,-16.93333 2.16085,-5.99811 1.34752,-12.35049 2.67361,-18.52084 1.9566,-9.10484 5.39618,-18.41103 5.80655,-27.78124 0.16854,-3.8489 -0.87101,-7.34219 -1.0377,-11.1125 C 260.64849,112.49064 256.81335,93.913985 246.62636,76.108586 242.8497,69.507761 237.70911,64.062637 233.06938,58.11692 226.34949,49.505527 219.62405,40.659713 210.7322,34.169219 198.9929,25.600424 184.42627,22.838148 171.0447,17.980901 c -5.07656,-1.842717 -10.22509,-3.557217 -15.08125,-5.94741 -1.39382,-0.685985 -2.06401,-2.4993071 -3.4671,-2.9367427 -2.24208,-0.6990556 -5.45518,-0.1750484 -7.79701,-0.1492515 -5.60202,0.061754 -11.25828,0.1328737 -16.85713,-0.012462 -3.84863,-0.09988 -8.58044,-2.105263 -12.36001,-1.2126647 m 44.45,35.0487179 c 0.38444,-1.761596 1.63169,-1.124215 2.91042,-0.573088 2.42464,1.045104 4.77043,2.15609 7.14375,3.31761 10.25551,5.019675 18.48167,12.793398 28.31041,18.417116 7.29351,4.173008 15.49585,8.989748 19.53392,16.673776 1.9476,3.705754 1.9566,7.939617 3.74439,11.641667 2.72362,5.640387 7.50014,10.146501 9.50277,16.139581 1.15808,3.46578 0.59955,6.78418 0.55748,10.31875 -0.0548,4.60163 0.26352,9.15882 0.26352,13.75833 0,11.51917 -0.4355,22.69755 -1.54252,34.13125 -0.56224,5.8047 -1.58485,14.03615 -4.84558,19.03968 -1.25386,1.92379 -3.98568,3.3319 -5.78273,4.74213 -3.1205,2.44925 -5.9473,5.27791 -8.88365,7.9375 -3.40439,3.08372 -6.36005,6.6458 -9.92531,9.55569 -7.21493,5.88857 -15.6472,11.12123 -23.78895,15.61703 -4.53364,2.50349 -9.27947,5.34167 -14.2875,6.77624 -8.73311,2.50164 -17.47705,1.84309 -26.45834,2.50137 -3.99176,0.29263 -7.87347,0.62812 -11.90624,0.77497 -1.26948,0.046 -2.41962,0.67045 -3.70417,0.4236 -8.83708,-1.69651 -17.34185,-6.17247 -25.135417,-10.47618 -5.546195,-3.06255 -11.270985,-6.46298 -15.874999,-10.86485 -5.271294,-5.04005 -9.142412,-11.39163 -13.50301,-17.1876 -3.982508,-5.29299 -9.890389,-8.98525 -13.399293,-14.55208 -6.119283,-9.70783 -6.946635,-22.24167 -8.362685,-33.3375 -0.449262,-3.51816 -1.949185,-7.03527 -2.037291,-10.58333 -0.09922,-3.98859 0.947208,-8.01952 1.729316,-11.90625 0.846667,-4.20846 1.278731,-8.48466 2.073804,-12.7 0.588698,-3.12235 0.284692,-7.15433 1.594908,-10.05417 3.17209,-7.021772 9.762596,-12.430913 13.412523,-19.314578 1.321329,-2.491845 1.724554,-5.577681 3.215216,-7.937499 C 70.118598,66.135118 79.630104,59.364431 87.43637,52.485 c 3.636169,-3.204369 6.957483,-7.771871 11.377083,-9.894094 7.592747,-3.645429 16.056237,-1.405202 24.077087,-2.246047 3.11573,-0.326496 6.13965,-1.564746 9.26041,-1.783557 9.63031,-0.674952 18.68832,1.610255 27.78125,4.209786 M 85.584287,208.66483 c 7.053527,1.67931 15.028863,-1.31022 22.225003,-0.57494 1.86055,0.19024 4.72413,-0.60008 6.24575,0.74771 2.46565,2.18334 3.14087,8.87783 3.54383,11.99806 1.31471,-0.41381 1.70656,-1.79308 2.38231,-2.91041 1.42901,-2.363 3.78274,-6.59342 6.87414,-6.94241 1.55945,-0.17621 1.71767,1.90739 2.08412,2.97366 0.69612,2.02538 3.04826,7.97004 5.34061,8.53228 1.39171,0.34158 1.76028,-2.09524 2.03042,-2.97603 0.67045,-2.18837 3.35385,-8.02587 5.89571,-8.45688 1.51103,-0.25612 3.48985,3.00302 4.49685,3.91398 3.37291,3.05117 7.77849,5.46074 12.17084,6.65956 0.60007,-2.02988 -0.94007,-8.26479 1.60205,-9.07679 1.84732,-0.59002 5.28293,0.81941 7.1292,1.24645 2.28176,0.52784 4.81356,0.42201 7.14375,0.42201 1.43801,0 4.18332,0.5887 4.7625,-1.05833 -1.94893,-0.56277 -6.44631,-3.41921 -2.9091,-5.14006 2.2307,-1.08533 5.64462,-0.4109 7.93618,0.11297 0.46461,-2.49343 -3.21813,-2.88369 -5.02708,-3.09933 -6.29524,-0.75062 -12.33276,0.49821 -18.25625,-2.78368 -9.31783,-5.16202 -9.525,-13.71097 -9.525,-23.22115 0,-3.7981 -0.18177,-8.29945 1.18216,-11.90625 4.79954,-12.69418 18.8415,-16.67351 31.097,-16.66875 3.14246,0.001 6.45451,-0.39555 9.525,0.47334 2.3368,0.66093 3.81556,2.27436 5.82083,3.48721 4.91464,2.97285 9.75757,4.57888 15.08125,1.61581 1.30916,-0.72893 2.41565,-1.79044 3.38323,-2.93053 3.54621,-4.17803 2.84718,-9.54272 -0.21299,-13.75833 -0.88582,-1.21999 -4.24444,-3.43323 -3.90207,-5.03105 0.28098,-1.31075 1.49886,-2.42464 1.9677,-3.7002 1.47082,-4.0005 2.06005,-8.24415 1.29778,-12.43542 -0.93662,-5.14905 -3.11705,-9.75439 -7.29615,-13.09317 -1.97643,-1.57903 -6.08515,-3.21283 -7.45278,-5.235571 -0.66728,-0.986367 0.0275,-2.570956 0.19288,-3.631671 0.28655,-1.839118 0.14738,-3.848893 -0.62362,-5.555985 -0.79878,-1.769268 -2.34527,-3.167591 -4.28731,-3.57796 -1.41076,-0.297921 -3.9108,-0.04154 -4.75509,-1.487487 -1.06918,-1.830917 -0.11906,-5.252509 -0.63553,-7.370233 -1.76768,-7.246144 -6.22326,-13.381831 -13.13021,-16.576939 -5.15329,-2.383631 -11.18023,-2.240227 -16.66875,-1.413669 -1.72932,0.26035 -4.80298,2.706952 -6.35,2.096823 -1.39965,-0.551921 -2.41538,-2.127779 -3.44355,-3.152246 -1.44198,-1.437481 -3.15966,-2.656681 -4.75853,-3.916891 -6.04653,-4.76594 -14.24199,-7.464954 -21.96042,-5.696479 -7.54142,1.727729 -14.40021,6.446043 -18.46553,13.048985 -1.24937,2.029089 -2.5535,4.570147 -3.16415,6.879166 -0.32147,1.21576 -0.381,3.339041 -1.68249,3.976423 -0.99695,0.488421 -1.92537,-0.652463 -2.616994,-1.208617 -1.719262,-1.382977 -3.774281,-2.914385 -5.820833,-3.767666 -8.053122,-3.358092 -16.129264,0.06826 -20.727457,7.34986 -2.12434,3.363912 -3.86371,8.161866 -2.945077,12.170832 0.443706,1.936221 1.496219,3.821642 2.424112,5.55625 0.333111,0.622829 0.956734,1.575065 0.575734,2.298171 -0.745596,1.415521 -3.394869,1.52056 -4.31509,3.268398 -0.855927,1.625866 -1.017587,3.480856 -0.930804,5.281346 0.04921,1.02209 0.628386,2.24578 -0.324908,3.01625 -1.160727,0.93821 -3.554942,1.06786 -4.977342,1.53988 -3.357033,1.11416 -6.397624,3.80894 -7.298795,7.35012 -1.028435,4.04257 -0.279135,8.48439 1.473729,12.17083 0.70485,1.4822 3.758671,4.84638 3.451754,6.33968 -0.235744,1.14644 -1.825889,2.28706 -2.533914,3.18532 -1.444625,1.83277 -2.534973,3.95023 -3.453342,6.08542 -3.259666,7.58005 0.700881,18.22662 7.566819,22.33533 8.915399,5.33506 16.789928,2.72785 24.073113,-3.89017 1.813983,-1.64835 3.256491,-5.50651 5.564187,-6.37937 2.457715,-0.92921 6.677819,1.40176 8.991868,2.19525 6.07562,2.08333 13.19556,6.69475 16.45311,12.46187 1.5285,2.70563 2.26589,6.47965 2.74532,9.525 0.32782,2.08333 0.42783,4.50506 0.37676,6.61459 -0.0603,2.5064 -0.32199,5.53799 -1.76847,7.67265 -3.379,4.98687 -10.09491,4.09575 -15.16089,4.8424 -3.347773,0.49345 -6.605852,2.07672 -9.525,3.70152 -2.144712,1.19354 -7.472098,3.05144 -8.202083,5.47926 M 124.77146,107.20321 c 4.53363,-1.04695 8.01079,2.3966 7.5991,6.74079 -0.11457,1.20915 0.25161,4.62042 -1.30678,4.92839 -3.18109,0.62865 -6.14204,-5.73537 -6.78498,-8.10339 -0.2868,-1.05622 -1.12871,-3.1914 0.49266,-3.56579 m 27.48888,0.2421 c 1.41314,-0.37439 2.9427,0.34157 4.23228,0.81994 3.33004,1.2356 7.26889,2.76754 7.37393,7.00167 0.12065,4.87706 -5.1218,9.19109 -8.43227,12.09516 -1.06521,0.93424 -2.51989,2.58207 -3.96372,2.85591 -2.0103,0.3818 -1.32794,-3.73697 -1.32794,-4.89691 v -13.49375 c 0,-1.73672 0.05,-3.83434 2.11772,-4.38202 m -53.446887,17.08202 c 2.715947,-6.09335 10.833367,-11.05402 15.680527,-4.49765 1.32636,1.79388 2.73341,3.85472 3.125,6.08515 0.11192,0.63659 0.47069,1.88833 -0.3691,2.19393 -1.1176,0.4064 -2.93475,-0.95779 -3.88434,-1.42663 -2.07593,-1.02447 -4.58417,-1.6637 -6.87917,-1.84838 -2.38284,-0.19156 -5.529,0.52519 -7.672917,-0.50642 m 54.504167,23.01875 c 1.26973,-2.71542 4.85695,-3.8645 7.14375,-5.60811 2.52492,-1.9251 5.02205,-3.73644 7.40833,-5.84464 0.8218,-0.72575 1.82827,-2.36749 2.92259,-2.63578 0.65219,-0.16007 1.01203,0.35957 1.25227,0.87498 0.55668,1.19406 3.4544,5.39935 2.92629,6.48917 -0.61357,1.26576 -3.28215,1.76636 -4.45532,2.32225 -4.30344,2.03914 -12.38303,5.8248 -17.19791,4.40213 m -50.27083,-8.39099 c 6.65691,-0.81757 13.13735,1.63883 16.55524,7.59724 1.38589,2.41591 1.72799,4.48231 2.23017,7.14375 0.18283,0.9697 0.49054,2.61726 -0.82259,2.96545 -0.92207,0.24474 -2.12301,-0.60113 -2.88157,-1.03399 -2.27727,-1.2991 -4.20423,-3.04138 -6.35,-4.52676 -3.77852,-2.61567 -8.09149,-6.32301 -12.700004,-7.26201 -1.077648,-0.21961 -4.740539,-0.43339 -4.903787,-1.78541 -0.123825,-1.02685 1.293019,-1.29117 1.993371,-1.5629 2.179108,-0.84587 4.55374,-1.24962 6.87917,-1.53537 z"
       id="path722" />
  </g>
</svg>
