<?xml version="1.0" encoding="UTF-8" standalone="no"?>
<!-- Created with Inkscape (http://www.inkscape.org/) -->

<svg
   width="1023.9999"
   height="1023.9999"
   viewBox="0 0 270.93333 270.93333"
   version="1.1"
   id="svg5"
   inkscape:export-filename="pu.svg"
   inkscape:export-xdpi="96"
   inkscape:export-ydpi="96"
   xmlns:inkscape="http://www.inkscape.org/namespaces/inkscape"
   xmlns:sodipodi="http://sodipodi.sourceforge.net/DTD/sodipodi-0.dtd"
   xmlns="http://www.w3.org/2000/svg"
   xmlns:svg="http://www.w3.org/2000/svg">
  <sodipodi:namedview
     id="namedview7"
     pagecolor="#ffffff"
     bordercolor="#000000"
     borderopacity="0.25"
     inkscape:showpageshadow="2"
     inkscape:pageopacity="0.0"
     inkscape:pagecheckerboard="0"
     inkscape:deskcolor="#d1d1d1"
     inkscape:document-units="mm"
     showgrid="false" />
  <defs
     id="defs2" />
  <g
     inkscape:label="Layer 1"
     inkscape:groupmode="layer"
     id="layer1">
    <path
       style="display:none;fill:#080504;stroke:none;stroke-width:0.264583"
       d="m 131.49791,4.6302081 c -3.73168,0.3395662 -6.65665,2.5322476 -10.58333,2.5133299 -2.17038,-0.010451 -5.49381,-2.173843 -7.36336,-1.6683301 -0.93186,0.2519891 -1.81689,1.2349161 -2.69081,1.6895761 -2.29182,1.1922918 -4.73101,2.2871905 -7.14375,3.205004 -9.106692,3.464136 -18.456537,5.752279 -26.987497,10.645404 -6.390481,3.665431 -11.800945,9.050734 -17.727083,13.411331 -5.203295,3.828786 -12.077699,6.734175 -16.555507,11.392429 -4.865687,5.061743 -9.881923,11.488737 -13.213027,17.681045 -1.75207,3.257021 -2.799106,6.786033 -4.461536,10.054166 -2.182177,4.289954 -5.356833,8.07085 -7.542238,12.435416 -2.722695,5.437717 -4.204917,11.193991 -6.009878,16.933331 -1.7923405,5.69913 -3.1893669,11.52075 -5.0679349,17.19792 -1.0109729,3.05541 -2.8227072,6.26851 -2.9665347,9.525 -0.2511425,5.68483 0.4663017,11.29374 1.0029825,16.93333 1.8508132,19.4482 7.0783971,38.74055 18.3079221,55.03333 4.115991,5.97165 10.168334,10.49972 15.029523,15.875 6.523831,7.2136 12.576704,15.17518 20.153312,21.34526 5.490633,4.47146 12.774612,7.39986 19.049999,10.5918 5.839089,2.96995 11.636639,6.56669 17.727082,8.98128 5.2578,2.08465 11.227325,2.03121 16.668745,3.46154 2.19737,0.57759 4.43045,0.9779 6.61459,1.61714 0.88847,0.26008 1.69174,0.98292 2.64583,0.92286 4.51908,-0.28495 8.59102,-2.82839 13.22917,-2.96518 6.73867,-0.19897 13.65885,0.63658 20.37291,0.008 2.82231,-0.26458 5.41655,-1.6637 8.20209,-2.07857 6.65665,-0.99139 13.19265,-0.77443 19.57916,-3.13372 2.76066,-1.01997 5.17922,-3.04218 7.67292,-4.56486 4.98448,-3.0435 10.00495,-5.97588 14.81666,-9.29084 8.92175,-6.14627 18.02236,-12.05733 25.64104,-19.87762 4.5757,-4.69714 7.67318,-9.84779 11.47524,-15.07093 3.48562,-4.78816 7.55994,-9.36572 10.01527,-14.81666 2.92524,-6.49446 1.79176,-13.5591 3.31523,-20.37292 1.91797,-8.57832 4.74874,-17.1315 5.59991,-25.92916 0.41301,-4.26588 -0.54848,-8.25527 -0.73845,-12.43542 -0.67628,-14.9008 -2.46063,-29.13988 -8.0018,-43.127081 -5.37077,-13.557514 -13.94222,-24.168893 -22.8891,-35.454165 -7.11094,-8.968845 -14.26739,-17.955947 -24.15275,-24.022049 -10.38358,-6.371563 -22.4282,-9.28706 -33.86667,-13.043296 -6.15738,-2.022025 -12.44838,-4.253653 -18.25598,-7.132108 -1.48961,-0.73832 -2.00819,-2.3087541 -3.44382,-3.0935612 -5.10646,-2.7912217 -11.59351,-3.9103563 -17.45853,-3.3766917 m 14.02292,34.7927069 c -1.40468,2.606145 -5.59303,4.479131 -7.9375,6.258454 -6.78868,5.151966 -15.85463,10.731234 -19.744,18.612378 -2.02195,4.097337 4.53495,6.088591 6.65638,8.490479 5.0046,5.665787 2.07063,14.88678 -3.84572,18.613701 -1.32953,0.837406 -4.80033,2.285206 -6.32221,1.462352 -1.46633,-0.792692 -2.27965,-3.351742 -3.03716,-4.754033 -1.64623,-3.046942 -3.77586,-6.446308 -7.04479,-7.959725 -5.575831,-2.581804 -9.086587,2.957512 -14.287501,2.051844 C 83.209073,81.02335 80.422746,69.556574 78.983942,64.029164 78.51854,62.240845 77.28955,59.818849 77.630598,57.943747 c 0.232304,-1.27635 1.613429,-2.158206 2.538148,-2.931583 2.243402,-1.876425 4.451085,-3.818202 6.569604,-5.834062 2.229379,-2.121694 4.298685,-4.683125 6.924145,-6.328569 6.891605,-4.319058 13.974765,-1.977231 21.431245,-2.39686 1.6981,-0.09551 3.30412,-0.887412 5.02709,-1.00621 8.38173,-0.577057 16.99657,-0.02355 25.4,-0.02355 m 66.67499,37.041665 c -2.99164,-0.0021 -5.79728,-0.855134 -8.73125,-1.277938 -7.00219,-1.009385 -14.08747,-2.161646 -21.16666,-2.161646 -3.77799,0 -8.20844,-0.09922 -11.6377,1.765565 -2.77627,1.509448 -1.74149,4.980516 -1.23825,7.494852 1.08955,5.444066 -0.0183,11.582134 -6.70322,11.878732 -2.95804,0.131234 -9.24771,-2.240756 -10.8368,-4.872037 -0.70856,-1.173162 0.45535,-3.627966 0.66754,-4.890029 0.60114,-3.576637 0.9189,-6.784974 -0.15981,-10.318749 -1.60549,-5.258858 -7.23688,-7.593277 -9.88642,-12.170833 -3.1877,-5.507831 0.85408,-12.44547 3.70549,-17.197916 0.90647,-1.510771 1.973,-4.105539 3.57294,-4.979458 2.56751,-1.402292 9.15299,1.62851 11.61415,2.67335 11.0527,4.692121 20.11547,11.999118 29.89791,18.740966 5.01862,3.458633 10.49946,6.107376 15.34583,9.85123 1.97168,1.523471 4.47834,3.152511 5.55625,5.463911 M 76.46458,58.737497 c -0.059,2.858294 -1.00039,5.659173 -1.472407,8.466666 -1.05357,6.268244 -2.198952,12.499446 -3.097212,18.785416 -0.577321,4.040981 -1.267089,9.721056 0.751417,13.493749 2.567252,4.798752 7.039503,1.263122 10.961951,1.069972 4.985279,-0.24553 10.778596,6.08992 11.088687,10.83628 0.204258,3.12896 -1.386416,5.81766 -2.808552,8.46666 -0.489743,0.91176 -1.036637,2.34501 -2.016389,2.83845 -1.030552,0.51885 -2.863056,-0.38126 -3.882496,-0.69109 -2.944019,-0.89482 -6.150239,-2.64213 -9.260416,-1.55363 -5.678752,1.98755 -6.265333,8.26585 -10.847916,11.33395 -5.479256,3.66845 -14.956366,-2.29737 -19.843749,-4.8125 -1.458913,-0.75062 -5.007769,-1.87404 -5.660231,-3.46075 -0.404813,-0.98504 0.100806,-2.38654 0.256381,-3.38984 0.371475,-2.3958 0.613304,-4.76779 1.11469,-7.14375 0.701674,-3.32476 0.328347,-7.48136 1.753658,-10.58334 3.412066,-7.426849 10.533062,-12.79154 13.948303,-20.372911 0.960702,-2.132541 1.442773,-4.563004 2.547938,-6.614583 2.343943,-4.351602 6.559285,-8.093074 10.126662,-11.42312 1.915318,-1.787525 3.897047,-4.211373 6.339681,-5.245629 m 153.19374,81.227083 c -2.24314,-1.34488 -3.65151,-4.51168 -5.13926,-6.61459 -4.33547,-6.12775 -9.08712,-15.54294 -16.55657,-18.32901 -3.00223,-1.11998 -6.47779,-0.97234 -8.99477,1.18745 -3.7391,3.20808 -4.27885,9.95363 -10.5844,8.81645 -0.81729,-0.14711 -1.6383,-0.39793 -2.38125,-0.77073 -0.99192,-0.49768 -1.86478,-1.21021 -2.61831,-2.02062 -1.09882,-1.1819 -4.36219,-5.34829 -3.80894,-7.05353 0.40005,-1.2327 2.76754,-2.29976 3.78142,-3.00329 2.99482,-2.07751 7.48612,-4.36007 8.84873,-7.93088 1.97114,-5.165197 -2.86253,-10.379605 -1.90924,-15.610418 0.37492,-2.056077 2.70457,-3.370527 4.43759,-4.160837 4.22355,-1.926431 8.75242,-3.078162 13.22917,-4.274873 1.61978,-0.433123 4.07696,-1.600993 5.76553,-1.246187 1.23667,0.260085 1.91744,2.302404 2.31458,3.331898 1.25651,3.256491 1.44039,6.947428 3.00514,10.054166 2.81172,5.58165 7.90681,10.339121 9.65014,16.404161 1.16602,4.05765 0.69586,8.52038 0.69586,12.7 0,6.18173 0.26458,12.35605 0.26458,18.52084 M 133.61458,92.94812 c 3.88434,-0.553508 7.84833,0.315119 11.64166,0.999332 4.69398,0.846666 8.94556,2.774156 12.96459,5.294841 19.09656,11.977157 25.78258,38.357707 13.74113,57.655617 -2.94481,4.71937 -6.96542,8.53122 -11.51228,11.67606 -4.68366,3.23982 -10.35183,5.43004 -15.98719,6.28015 -8.18409,1.23455 -16.68356,0.55113 -24.34166,-2.72388 -18.01548,-7.70467 -28.932982,-27.31109 -24.351987,-46.45316 1.07024,-4.47173 2.570163,-8.49736 4.987397,-12.43542 3.11653,-5.07735 7.38875,-9.5115 12.22084,-12.98469 6.18252,-4.444206 13.24133,-6.25475 20.6375,-7.30885 m -1.32292,4.795309 c -5.61472,0.73951 -11.15668,2.388661 -15.875,5.635621 -5.70045,3.92272 -10.50687,8.92757 -13.62022,15.15428 -8.59684,17.19368 -1.24777,38.53576 15.20772,47.92318 7.04824,4.02087 15.80092,5.37422 23.8125,4.41563 5.18266,-0.62018 10.37537,-2.21059 14.81667,-4.99163 5.15408,-3.22765 9.46123,-7.44405 12.58014,-12.68677 15.21566,-25.57647 -7.65625,-59.304232 -36.92181,-55.450311 M 39.952081,125.41249 c 2.137304,1.63963 3.571346,4.44289 5.139267,6.61459 4.314031,5.97535 8.256587,12.38911 13.371247,17.72602 2.306902,2.40718 4.7244,4.97681 7.947818,6.13966 7.827698,2.82363 9.659673,-7.67001 15.345833,-10.12375 2.427552,-1.04749 6.253691,0.58843 8.201818,2.03067 2.220384,1.64359 3.685117,4.36642 4.402931,6.98156 0.233363,0.85037 0.815446,1.95898 0.308505,2.80723 -0.714905,1.19592 -2.797705,1.90421 -3.917421,2.68843 -2.474119,1.73249 -4.911196,3.90393 -6.243373,6.67518 -2.170112,4.51405 1.154642,8.87068 -0.118533,13.22916 -0.769673,2.63472 -2.985558,4.47384 -5.204354,5.91238 -5.067035,3.28507 -12.507912,6.63284 -18.596239,7.17867 -1.734079,0.15532 -3.138222,-1.94204 -4.233333,-3.03688 -3.301206,-3.29989 -6.621991,-5.84544 -8.87386,-10.05417 -5.536141,-10.34653 -5.60652,-22.06201 -7.653337,-33.3375 -0.5715,-3.14854 -1.785937,-6.31243 -1.969029,-9.525 -0.125942,-2.21138 0.576527,-4.44949 0.917575,-6.61458 0.282575,-1.79387 0.286015,-3.65654 1.174485,-5.29167 m 156.897909,84.66667 c 0.15981,-3.72401 1.35255,-7.45967 2.03465,-11.1125 0.98372,-5.26865 1.47373,-10.56614 1.97908,-15.875 0.39555,-4.15608 0.91519,-10.22747 -1.21364,-14.01895 -1.66106,-2.95804 -6.55797,-0.39052 -9.15009,-0.0796 -5.13212,0.61595 -13.44401,-4.8305 -13.44427,-10.50766 -2.7e-4,-1.51871 0.85063,-2.96439 1.58829,-4.23333 0.86545,-1.48881 1.81372,-4.46591 3.438,-5.26071 1.21364,-0.59373 3.46181,0.4609 4.71381,0.70987 3.5015,0.69612 7.09348,1.59147 10.58334,0.44688 5.53349,-1.81451 5.14112,-7.99147 9.26068,-11.0953 4.57385,-3.44646 13.15773,1.83462 17.46223,4.0222 1.44674,0.73528 3.20358,1.39197 4.48231,2.38998 1.54596,1.20676 0.83026,2.87655 0.81042,4.55374 -0.0511,4.28123 -0.30242,8.71194 -0.78158,12.96459 -0.59029,5.24086 -1.57269,10.21847 -2.7514,15.34583 -0.64082,2.78738 -1.28482,6.36958 -3.03054,8.70743 -1.23931,1.65947 -3.48086,2.7948 -5.07921,4.10475 -3.36629,2.75934 -6.60611,5.67716 -9.78958,8.64261 -3.5142,3.27369 -6.78921,8.08223 -11.1125,10.29521 m -75.14166,23.01875 c 3.1795,-1.61396 6.08832,-4.30742 8.99583,-6.38705 5.86846,-4.19814 11.80809,-8.36242 17.19686,-13.17863 3.01175,-2.69187 6.80164,-6.12298 8.07931,-10.06766 1.37822,-4.2537 -5.4774,-6.38492 -7.56814,-9.26041 -3.15542,-4.33996 -1.75207,-11.65966 2.40136,-14.84313 2.41909,-1.8542 5.17578,-2.14048 7.93644,-3.14854 2.80406,4.8223 4.93713,11.06091 10.58333,13.36807 4.96703,2.02962 8.26559,-3.02683 12.96459,-2.34606 2.27383,0.32941 3.96742,2.24843 5.19668,4.05924 2.72574,4.01505 4.34155,8.65029 5.82507,13.22917 0.5752,1.77562 1.71079,3.92694 1.65126,5.82083 -0.0799,2.55005 -4.98422,4.60428 -6.85218,5.89571 -7.29244,5.04163 -15.03415,10.23435 -23.28333,13.59244 -2.45613,0.99986 -4.86939,2.02591 -7.40833,2.7977 -1.11708,0.33946 -2.2397,0.8173 -2.91042,-0.32543 -5.02285,1.16205 -10.22244,3.10779 -15.34583,3.65812 -6.42594,0.69057 -12.76139,-0.14631 -19.05,-0.69506 -1.00859,-0.0881 -1.8632,0.55113 -2.91042,0.38841 -6.83101,-1.06204 -14.04646,-4.5511 -20.108331,-7.7208 -7.133431,-3.7301 -14.605529,-7.70943 -20.637499,-13.13842 -5.9944,-5.39485 -11.354329,-12.96405 -15.610416,-19.7985 4.128029,0.0341 8.385439,1.26523 12.435416,1.99416 4.559035,0.82047 9.170722,1.03188 13.758332,1.49066 4.473046,0.44715 9.303808,0.82683 13.493748,-1.32476 7.1718,-3.68274 2.0582,-11.17151 4.64847,-16.71188 1.55839,-3.33375 6.08144,-4.05051 9.37445,-4.20582 1.07765,-0.0508 2.12989,0.31115 3.175,0.52573 1.70656,0.35031 4.98157,1.68328 5.29352,3.67982 0.1942,1.24222 -1.05305,3.07817 -1.474,4.23334 -1.05198,2.88581 -1.8833,5.96873 -0.99748,8.99583 1.77218,6.05658 8.74872,7.79754 11.14425,13.22917 1.13215,2.56672 -0.0291,5.98037 -0.90514,8.46666 -2.25187,6.39075 -5.82797,11.86365 -9.0924,17.72709 m -0.52917,0.26458 0.26458,0.26458 z"
       id="path315" />
    <path
       style="fill:#070503;stroke:none;stroke-width:0.264583"
       d="m 116.99356,2.1485118 c -3.3774,1.398307 -6.52118,3.7845575 -10.05417,5.1769537 C 97.214104,11.15814 87.198038,13.537829 78.099811,18.929349 71.73473,22.70117 66.430364,28.273109 60.372729,32.534223 55.298814,36.103452 49.125821,39.046677 44.573136,43.250906 39.121925,48.284868 33.667011,55.870208 30.235365,62.441664 c -1.657455,3.173941 -2.636731,6.624637 -4.257039,9.789582 -2.295446,4.483629 -5.711534,8.294688 -7.857278,12.964583 -4.100274,8.923602 -6.133121,18.229261 -9.0850243,27.516661 -1.5340277,4.82627 -4.5022503,10.60847 -4.9917771,15.61042 -0.6456733,6.59765 0.3629898,13.30087 0.9856549,19.84375 1.8132292,19.0537 7.2148825,38.24922 18.0880135,54.23958 4.489291,6.60215 11.011323,11.48133 16.277325,17.4625 6.484673,7.36573 12.784666,15.37917 20.448322,21.57227 5.674518,4.58576 13.120687,7.52951 19.579166,10.83257 6.140978,3.14087 12.468753,7.36494 19.049999,9.46653 4.392343,1.40255 9.214383,1.93013 13.758333,2.69372 3.66316,0.61516 7.11306,1.72112 10.84792,1.97776 5.18133,0.35454 10.42193,-0.19579 15.61041,0.0344 5.22023,0.23018 10.287,1.77271 15.61042,1.01071 1.76953,-0.254 3.20939,-1.96057 4.7625,-2.76755 2.18704,-1.13559 5.00539,-1.80049 7.40833,-2.31007 6.89954,-1.46315 13.99196,-0.49768 20.6375,-3.36762 6.52727,-2.81861 12.78837,-7.69937 18.78542,-11.5107 13.53925,-8.60478 26.7036,-18.03744 36.95647,-30.54244 1.7772,-2.16746 2.79717,-4.87838 4.44791,-7.14375 3.68617,-5.0583 7.93459,-9.91235 10.63386,-15.61041 3.46499,-7.31494 2.60245,-16.45973 4.17619,-24.34167 1.59861,-8.00708 4.57888,-15.85198 5.14535,-24.07708 0.30348,-4.40902 -0.83397,-8.39126 -1.02447,-12.7 -0.27093,-6.13807 -0.22278,-12.15893 -1.1848,-18.25625 C 261.77541,94.112816 252.99865,75.528219 239.59459,59.486268 231.07924,49.295312 223.64022,38.038615 212.50814,30.434755 197.24353,20.007897 178.0369,17.177702 161.17898,10.267288 158.87975,9.3247629 156.68662,7.7739871 154.29981,7.0880284 148.44405,5.4049874 142.32053,4.7629496 136.30814,4.1884333 c -2.21747,-0.2119047 -4.19602,-1.1874234 -6.35,-1.4868788 -1.44621,-0.2010463 -2.80405,0.3981449 -4.23333,0.4630208 -1.77059,0.08038 -3.56738,0.060431 -5.29167,-0.3807354 -1.02896,-0.2632895 -2.37886,-1.0744967 -3.43958,-0.6353281 m 32.54375,33.5702362 c -1.79546,3.421856 -6.49367,5.926402 -9.26042,8.609277 -7.29959,7.077868 -14.10176,14.511866 -20.8571,22.082388 -1.92246,2.154502 -4.02881,4.527021 -5.68828,6.879431 -0.93001,1.318419 -2.02776,3.472921 -3.61712,3.968486 -0.51831,3.163887 -4.65296,7.044001 -6.53282,9.60067 -4.560362,6.201304 -8.896618,12.88362 -12.665078,19.55879 -10.063162,17.82445 -17.749043,36.80857 -19.152393,57.35929 -0.23204,3.3983 0.527579,6.459 0.75565,9.78958 0.479954,7.00484 1.39356,14.20865 3.8354,20.8571 5.877189,16.00359 17.625747,30.17176 33.570071,36.87868 5.71129,2.40242 11.80544,3.34143 17.91626,3.93938 4.00552,0.39212 7.80229,1.03214 11.90625,0.74295 19.37014,-1.36525 37.06362,-11.23606 48.00626,-27.49311 2.97048,-4.41325 6.01186,-9.16411 7.50649,-14.31105 2.51487,-8.66034 4.63815,-18.3814 3.43959,-27.49312 -2.18202,-16.58567 -11.16674,-29.91617 -20.80763,-43.13105 -3.09642,-4.24444 -5.77453,-8.81115 -8.86963,-13.03628 -5.56313,-7.59354 -11.48186,-15.595073 -14.60341,-24.530581 -4.57068,-13.08391 -5.96238,-25.217172 -3.36709,-38.893748 0.40984,-2.159794 0.95938,-4.724929 1.12422,-6.879166 0.0807,-1.057011 0.15901,-3.259138 0.95991,-4.037013 1.01362,-0.984514 3.42159,-0.309033 4.60295,0.0037 4.29472,1.137443 8.21637,4.061354 12.17084,6.038585 9.80228,4.901141 17.82365,11.62341 26.98749,17.45853 7.34325,4.675981 15.77473,8.580702 21.38627,15.461191 4.08438,5.007768 3.96796,10.621168 6.56167,16.139583 2.7813,5.916876 8.07852,10.590749 9.94436,16.933339 1.36129,4.62756 0.3392,9.32894 0.5715,14.02291 0.57309,11.57738 0.77894,23.38943 -0.31882,34.92499 -0.69532,7.30621 -1.18507,14.27427 -2.98318,21.43125 -0.76808,3.0578 -1.33958,6.51167 -2.98688,9.25645 -1.24354,2.07275 -4.09998,3.53007 -5.98117,5.00062 -3.30888,2.58631 -6.53838,5.54699 -9.525,8.49817 -3.38269,3.34248 -6.61458,6.95986 -10.31875,9.95362 -7.66947,6.19891 -16.5854,11.46704 -25.13541,16.32797 -5.72135,3.25305 -12.37986,6.97494 -18.78542,8.66245 -3.47795,0.91599 -7.29297,0.42572 -10.84791,0.51302 -4.2725,0.10452 -8.65929,0.60457 -12.96459,0.8001 -2.8313,0.12885 -5.28346,2.00422 -8.20208,1.79308 -5.22473,-0.37809 -10.70319,-2.41379 -15.61042,-4.1992 -12.630147,-4.59502 -25.971496,-11.4345 -35.450193,-21.1521 -5.501746,-5.64013 -9.414404,-12.7217 -14.414235,-18.78542 -3.544623,-4.29921 -8.272198,-7.28477 -11.433704,-11.90625 -6.661149,-9.73693 -7.586133,-23.79874 -8.860631,-35.18958 -0.39661,-3.54463 -1.980935,-7.0059 -2.068512,-10.58333 -0.107421,-4.37701 1.217083,-8.70585 1.990196,-12.96459 0.750358,-4.13305 1.140089,-8.31559 1.973527,-12.43541 0.663046,-3.27792 0.349779,-7.20064 1.589881,-10.31875 2.177521,-5.475294 7.699375,-10.194931 10.973858,-15.081256 2.795322,-4.171421 3.719247,-9.503039 6.471179,-13.493749 5.631126,-8.166364 13.797226,-14.501812 21.182805,-20.977489 4.244975,-3.721893 8.158426,-8.74686 12.964582,-11.707018 2.440782,-1.503098 5.255947,-1.544637 7.672917,-2.81305 2.56223,-1.344877 3.97404,-3.73671 6.87917,-4.735512 4.31456,-1.483519 8.99742,-1.041929 13.49375,-1.041929 3.81238,0 7.88696,-0.369094 11.64166,0.400843 4.46696,0.915988 8.61907,2.939521 13.22917,3.303323 m 19.57917,98.424997 c 1.79572,-0.50958 2.89163,0.67496 4.12009,1.87325 2.4458,2.38628 4.5212,5.38163 6.00842,8.4455 4.28651,8.831 8.92598,19.79242 5.68298,29.63333 -0.83555,2.53551 -1.11627,4.35849 -3.13531,6.33016 -7.05802,6.89293 -22.30226,2.10688 -20.27925,-8.97493 0.56462,-3.09298 2.1127,-6.27909 3.13875,-9.26147 1.6174,-4.70218 2.69902,-9.44219 3.79201,-14.2875 1.00515,-4.45532 2.091,-9.21174 0.67231,-13.75834 z"
       id="path448" />
  </g>
</svg>
