<?xml version="1.0" encoding="UTF-8" standalone="no"?>
<!-- Created with Inkscape (http://www.inkscape.org/) -->

<svg
   width="1023.9999"
   height="1023.9999"
   viewBox="0 0 270.93333 270.93333"
   version="1.1"
   id="svg5"
   inkscape:export-filename="pu.svg"
   inkscape:export-xdpi="96"
   inkscape:export-ydpi="96"
   xmlns:inkscape="http://www.inkscape.org/namespaces/inkscape"
   xmlns:sodipodi="http://sodipodi.sourceforge.net/DTD/sodipodi-0.dtd"
   xmlns="http://www.w3.org/2000/svg"
   xmlns:svg="http://www.w3.org/2000/svg">
  <sodipodi:namedview
     id="namedview7"
     pagecolor="#ffffff"
     bordercolor="#000000"
     borderopacity="0.25"
     inkscape:showpageshadow="2"
     inkscape:pageopacity="0.0"
     inkscape:pagecheckerboard="0"
     inkscape:deskcolor="#d1d1d1"
     inkscape:document-units="mm"
     showgrid="false" />
  <defs
     id="defs2" />
  <g
     inkscape:label="Layer 1"
     inkscape:groupmode="layer"
     id="layer1">
    <path
       style="display:inline;fill:#080504;stroke:none;stroke-width:0.267194"
       d="m 136.49927,3.7431917 c -3.76028,0.3436667 -6.70767,2.5628264 -10.66444,2.5436802 -2.18702,-0.010577 -5.53592,-2.2000937 -7.41979,-1.6884764 -0.93901,0.2550321 -1.83082,1.2498286 -2.71144,1.709979 -2.30938,1.2066896 -4.76726,2.31481 -7.19849,3.2437062 C 99.328624,13.058049 89.907128,15.373823 81.310788,20.326036 74.871332,24.03573 69.419403,29.486065 63.447849,33.899319 58.204677,37.77434 51.277589,40.714814 46.765464,45.42932 c -4.902977,5.122867 -9.957656,11.627472 -13.314289,17.894556 -1.765497,3.296352 -2.820558,6.86798 -4.495728,10.175578 -2.198901,4.341758 -5.397887,8.168311 -7.60004,12.585583 -2.743561,5.503381 -4.237143,11.329166 -6.055936,17.137813 -1.806077,5.76795 -3.213809,11.65987 -5.106774,17.4056 -1.0187212,3.09231 -2.8443405,6.34421 -2.9892703,9.64002 -0.2530672,5.75348 0.4698753,11.43012 1.0106692,17.13781 1.8649981,19.68305 7.1326441,39.20837 18.4482301,55.6979 4.147535,6.04376 10.246262,10.62651 15.144706,16.0667 6.573828,7.30071 12.673089,15.35843 20.307762,21.60302 5.532712,4.52546 12.872514,7.48922 19.195994,10.71971 5.883839,3.00581 11.72582,6.64598 17.862936,9.08973 5.298096,2.10983 11.313366,2.05574 16.796486,3.50334 2.21421,0.58457 4.46441,0.98971 6.66528,1.63667 0.89528,0.26322 1.70471,0.99479 2.66611,0.934 4.55371,-0.28839 8.65686,-2.86254 13.33056,-3.00098 6.79031,-0.20137 13.76353,0.64427 20.52904,0.008 2.84394,-0.26777 5.45806,-1.68379 8.26495,-2.10367 6.70766,-1.00336 13.29375,-0.78378 19.72921,-3.17156 2.78182,-1.03228 5.21891,-3.07891 7.73172,-4.61998 5.02268,-3.08025 10.08163,-6.04804 14.93021,-9.40304 8.99013,-6.22049 18.16048,-12.20293 25.83755,-20.11765 4.61077,-4.75386 7.73199,-9.96671 11.56319,-15.25292 3.51233,-4.84598 7.61787,-9.47882 10.09202,-14.99559 2.94766,-6.57288 1.80549,-13.72283 3.34064,-20.61893 1.93267,-8.68191 4.78513,-17.33838 5.64282,-26.24228 0.41618,-4.31739 -0.55268,-8.35496 -0.7441,-12.58558 -0.68147,-15.08074 -2.47949,-29.49177 -8.06313,-43.647879 C 252.07435,77.18415 243.43721,66.444631 234.42176,55.023081 227.25633,45.945931 220.04503,36.850303 210.08391,30.710948 199.62076,24.262444 187.48383,21.31174 175.9577,17.510145 169.75313,15.463703 163.41391,13.205126 157.56181,10.291912 156.06078,9.5446757 155.53823,7.9552777 154.09159,7.1609934 148.946,4.3360657 142.40923,3.2034167 136.49927,3.7435257 M 150.62965,38.95638 c -1.41544,2.637616 -5.63589,4.53322 -7.99833,6.334029 -6.8407,5.21418 -15.97613,10.860822 -19.89531,18.837137 -2.03745,4.146815 4.5697,6.162115 6.70739,8.593007 5.04296,5.734206 2.0865,15.066549 -3.87519,18.838475 -1.33972,0.847519 -4.83712,2.312802 -6.37066,1.480011 -1.47757,-0.802264 -2.29712,-3.392216 -3.06044,-4.811441 -1.65885,-3.083736 -3.8048,-6.524152 -7.09878,-8.055845 -5.61856,-2.612981 -9.156216,2.993226 -14.39699,2.076622 -6.800981,-1.189538 -9.608662,-12.794784 -11.058493,-18.388942 -0.468968,-1.809914 -1.707377,-4.261157 -1.363715,-6.158902 0.234084,-1.291763 1.625794,-2.184268 2.5576,-2.966984 2.260594,-1.899085 4.485197,-3.86431 6.619952,-5.904513 2.246464,-2.147315 4.331629,-4.739677 6.97721,-6.404991 6.944416,-4.371214 14.081856,-2.001108 21.595486,-2.425804 1.71111,-0.09666 3.32944,-0.898128 5.06561,-1.018361 8.44597,-0.584025 17.12683,-0.02383 25.59466,-0.02383 m 67.18598,37.48897 c -3.01457,-0.0021 -5.84171,-0.86546 -8.79817,-1.29337 -7.05585,-1.021574 -14.19543,-2.187749 -21.32887,-2.187749 -3.80695,0 -8.27135,-0.100418 -11.72689,1.786885 -2.79755,1.527676 -1.75484,5.04066 -1.24774,7.585358 1.0979,5.509807 -0.0184,11.721997 -6.7546,12.022176 -2.98071,0.132819 -9.31858,-2.267814 -10.91985,-4.93087 -0.71399,-1.187329 0.45884,-3.671776 0.67266,-4.94908 0.60575,-3.619827 0.92594,-6.866907 -0.16104,-10.443355 -1.61779,-5.322363 -7.29234,-7.684971 -9.96218,-12.317805 -3.21213,-5.574342 0.86062,-12.595758 3.73389,-17.405593 0.91341,-1.529015 1.98812,-4.155117 3.60032,-5.039589 2.58718,-1.419226 9.22313,1.648176 11.70316,2.705633 11.1374,4.748782 20.26963,12.144016 30.12704,18.967277 5.05708,3.500398 10.57992,6.181127 15.46343,9.97019 1.98679,1.541869 4.51267,3.19058 5.59884,5.529892 M 81.044178,58.503866 c -0.05945,2.89281 -1.008057,5.727511 -1.483692,8.568907 -1.061644,6.343938 -2.215804,12.650386 -3.120948,19.012264 -0.581745,4.089778 -1.2768,9.838444 0.757176,13.656693 2.586927,4.8567 7.093452,1.27838 11.045961,1.0829 5.023485,-0.2485 10.861201,6.16346 11.173669,10.96713 0.20582,3.16675 -1.397042,5.88792 -2.830077,8.5689 -0.493496,0.92277 -1.044582,2.37333 -2.031842,2.87273 -1.03845,0.52512 -2.884998,-0.38586 -3.912251,-0.69943 -2.966581,-0.90563 -6.197373,-2.67404 -9.331386,-1.5724 -5.722272,2.01156 -6.313349,8.36567 -10.931052,11.47082 -5.521248,3.71275 -15.070988,-2.32511 -19.995827,-4.87061 -1.470094,-0.75969 -5.046147,-1.89668 -5.70361,-3.50255 -0.407915,-0.99693 0.101579,-2.41535 0.258346,-3.43077 0.374322,-2.42473 0.618004,-4.82537 1.123233,-7.23002 0.707051,-3.36491 0.330863,-7.5717 1.767098,-10.71114 3.438215,-7.516534 10.613785,-12.946007 14.055199,-20.618929 0.968065,-2.158293 1.45383,-4.618106 2.567465,-6.694459 2.361907,-4.404151 6.609554,-8.190804 10.204271,-11.561062 1.929996,-1.809111 3.926913,-4.262229 6.388267,-5.308974 M 235.41195,140.71183 c -2.26033,-1.36112 -3.67949,-4.56616 -5.17864,-6.69447 -4.3687,-6.20175 -9.15676,-15.73063 -16.68346,-18.55034 -3.02524,-1.13351 -6.52743,-0.98409 -9.0637,1.20178 -3.76776,3.24682 -4.31164,10.07383 -10.66552,8.92292 -0.82355,-0.14889 -1.65085,-0.40274 -2.3995,-0.78004 -0.99952,-0.50369 -1.87907,-1.22482 -2.63837,-2.04502 -1.10724,-1.19617 -4.39562,-5.41287 -3.83813,-7.1387 0.40311,-1.24759 2.78875,-2.32754 3.8104,-3.03956 3.01777,-2.1026 7.54349,-4.41272 8.91654,-8.02665 1.98625,-5.227575 -2.88447,-10.504951 -1.92387,-15.79893 0.37779,-2.080906 2.7253,-3.411229 4.4716,-4.211082 4.25592,-1.949694 8.81949,-3.115333 13.33055,-4.326495 1.6322,-0.438354 4.10821,-1.620327 5.80972,-1.261236 1.24615,0.263226 1.93213,2.330207 2.33232,3.372133 1.26614,3.295816 1.45143,7.031323 3.02817,10.175577 2.83327,5.649053 7.9674,10.463973 9.72409,16.602253 1.17496,4.10665 0.7012,8.62327 0.7012,12.85336 0,6.25638 0.2666,12.50526 0.2666,18.7445 M 138.63216,93.127607 c 3.91411,-0.560192 7.90847,0.318924 11.73088,1.0114 4.72995,0.85689 9.01411,2.807656 13.06394,5.358783 19.24292,12.12179 25.98018,38.8209 13.84644,58.35185 -2.96738,4.77636 -7.0188,8.63424 -11.6005,11.81706 -4.71956,3.27894 -10.43117,5.49561 -16.10972,6.35598 -8.24681,1.24946 -16.81142,0.55779 -24.52821,-2.75677 -18.15354,-7.79771 -29.154709,-27.64089 -24.5386,-47.01411 1.07844,-4.52573 2.58985,-8.59998 5.02561,-12.58559 3.14041,-5.13866 7.44537,-9.62636 12.3145,-13.14149 6.2299,-4.497876 13.3428,-6.330284 20.79566,-7.397113 m -1.33306,4.853216 c -5.65775,0.74844 -11.24218,2.417507 -15.99666,5.703677 -5.74414,3.97009 -10.5874,9.03538 -13.72461,15.33728 -8.662715,17.40131 -1.25733,39.00111 15.32427,48.50189 7.10226,4.06942 15.92202,5.43911 23.995,4.46895 5.22237,-0.62767 10.45488,-2.23729 14.93022,-5.05191 5.19358,-3.26663 9.53374,-7.53394 12.67655,-12.83997 15.33227,-25.88533 -7.71493,-60.020377 -37.20477,-56.119917 M 44.251855,125.98401 c 2.153684,1.65943 3.598716,4.49654 5.178653,6.69447 4.347093,6.0475 8.319864,12.53871 13.473721,17.94007 2.324582,2.43625 4.760607,5.03691 8.008729,6.2138 7.887687,2.85773 9.733702,-7.76263 15.46344,-10.246 2.446156,-1.06014 6.301618,0.59554 8.264675,2.05519 2.2374,1.66344 3.713359,4.41915 4.436674,7.06587 0.235147,0.86064 0.821697,1.98264 0.310867,2.84113 -0.720382,1.21036 -2.819144,1.9272 -3.947441,2.72089 -2.49308,1.75341 -4.948834,3.95108 -6.291221,6.75579 -2.186743,4.56856 1.163491,8.9778 -0.119441,13.38891 -0.775572,2.66654 -3.008439,4.52787 -5.244239,5.98378 -5.105868,3.32474 -12.60377,6.71294 -18.738757,7.26536 -1.747369,0.15719 -3.162273,-1.96549 -4.265776,-3.07356 -3.326506,-3.33973 -6.672741,-5.91602 -8.941868,-10.17558 -5.578568,-10.47147 -5.649487,-22.32842 -7.71199,-33.74007 -0.57588,-3.18656 -1.799624,-6.38866 -1.984119,-9.64002 -0.126908,-2.23809 0.580945,-4.50322 0.924607,-6.69446 0.28474,-1.81553 0.288207,-3.70069 1.183486,-5.35557 m 158.100335,85.68908 c 0.16103,-3.76898 1.36291,-7.54975 2.05024,-11.24669 0.99126,-5.33227 1.48503,-10.69373 1.99425,-16.0667 0.39858,-4.20627 0.9222,-10.35098 -1.22294,-14.18824 -1.67379,-2.99376 -6.60823,-0.39524 -9.22022,-0.0806 -5.17145,0.62339 -13.54704,-4.88883 -13.5473,-10.63455 -2.7e-4,-1.53705 0.85715,-3.00019 1.60046,-4.28445 0.87209,-1.50679 1.82762,-4.51984 3.46435,-5.32424 1.22294,-0.6009 3.48834,0.46647 4.74994,0.71845 3.52833,0.70452 7.14784,1.61068 10.66444,0.45227 5.5759,-1.83642 5.18052,-8.08797 9.33166,-11.22928 4.6089,-3.48808 13.25856,1.85677 17.59605,4.07077 1.45783,0.74416 3.22813,1.40878 4.51666,2.41884 1.55781,1.22133 0.83663,2.91129 0.81664,4.60873 -0.0515,4.33293 -0.30474,8.81714 -0.78757,13.12115 -0.59482,5.30414 -1.58475,10.34186 -2.77249,15.53114 -0.64573,2.82104 -1.29467,6.4465 -3.05377,8.81258 -1.2488,1.67951 -3.50753,2.82855 -5.11813,4.15431 -3.39209,2.79267 -6.65674,5.74572 -9.86461,8.74698 -3.54113,3.31322 -6.84124,8.17983 -11.19766,10.41953 m -75.71753,23.29672 c 3.20387,-1.63345 6.13498,-4.35943 9.06477,-6.46418 5.91344,-4.24883 11.89859,-8.4634 17.32865,-13.33777 3.03484,-2.72438 6.85377,-6.19692 8.14123,-10.18923 1.38879,-4.30507 -5.51937,-6.46203 -7.62614,-9.37224 -3.1796,-4.39237 -1.7655,-11.80046 2.41977,-15.02237 2.43763,-1.87659 5.21544,-2.16633 7.99726,-3.18656 2.82555,4.88053 4.97497,11.19448 10.66444,13.5295 5.00509,2.05413 8.32893,-3.06338 13.06395,-2.37439 2.29125,0.33338 3.99782,2.27558 5.2365,4.10825 2.74663,4.06354 4.37482,8.75475 5.86971,13.38893 0.57961,1.79706 1.7239,3.97436 1.66392,5.89112 -0.0805,2.58084 -5.02242,4.65988 -6.9047,5.9669 -7.34832,5.10251 -15.14936,10.35794 -23.46176,13.75658 -2.47496,1.01194 -4.90671,2.05038 -7.46511,2.83149 -1.12564,0.34355 -2.25686,0.82717 -2.93272,-0.32936 -5.06135,1.17608 -10.30079,3.14531 -15.46344,3.70229 -6.47519,0.69891 -12.85919,-0.14808 -19.196,-0.70345 -1.01632,-0.0892 -1.87748,0.55778 -2.93272,0.3931 -6.88336,-1.07487 -14.15411,-4.60606 -20.26244,-7.81404 -7.188092,-3.77514 -14.717455,-7.80252 -20.795652,-13.29707 -6.04034,-5.46 -11.441347,-13.1206 -15.730051,-20.03758 4.159665,0.0345 8.449703,1.2805 12.530718,2.01824 4.593975,0.83037 9.241004,1.04434 13.863773,1.50866 4.507326,0.45255 9.375102,0.83681 13.597152,-1.34076 7.22677,-3.72721 2.07398,-11.30641 4.6841,-16.91369 1.57033,-3.37401 6.12804,-4.09942 9.44629,-4.25661 1.08591,-0.0514 2.14621,0.31491 3.19933,0.53208 1.71964,0.35454 5.01975,1.70361 5.33409,3.72426 0.19569,1.25722 -1.06112,3.11534 -1.48529,4.28446 -1.06005,2.92066 -1.89774,6.04081 -1.00513,9.10446 1.78576,6.12972 8.81577,7.8917 11.22966,13.38892 1.14083,2.59772 -0.0293,6.05259 -0.91208,8.5689 -2.26913,6.46793 -5.87263,12.00692 -9.16208,17.94116 m -0.53323,0.26778 0.26661,0.26777 z"
       id="path315" />
    <path
       style="display:none;fill:#070503;stroke:none;stroke-width:0.264583"
       d="m 116.99356,2.1485118 c -3.3774,1.398307 -6.52118,3.7845575 -10.05417,5.1769537 C 97.214104,11.15814 87.198038,13.537829 78.099811,18.929349 71.73473,22.70117 66.430364,28.273109 60.372729,32.534223 55.298814,36.103452 49.125821,39.046677 44.573136,43.250906 39.121925,48.284868 33.667011,55.870208 30.235365,62.441664 c -1.657455,3.173941 -2.636731,6.624637 -4.257039,9.789582 -2.295446,4.483629 -5.711534,8.294688 -7.857278,12.964583 -4.100274,8.923602 -6.133121,18.229261 -9.0850243,27.516661 -1.5340277,4.82627 -4.5022503,10.60847 -4.9917771,15.61042 -0.6456733,6.59765 0.3629898,13.30087 0.9856549,19.84375 1.8132292,19.0537 7.2148825,38.24922 18.0880135,54.23958 4.489291,6.60215 11.011323,11.48133 16.277325,17.4625 6.484673,7.36573 12.784666,15.37917 20.448322,21.57227 5.674518,4.58576 13.120687,7.52951 19.579166,10.83257 6.140978,3.14087 12.468753,7.36494 19.049999,9.46653 4.392343,1.40255 9.214383,1.93013 13.758333,2.69372 3.66316,0.61516 7.11306,1.72112 10.84792,1.97776 5.18133,0.35454 10.42193,-0.19579 15.61041,0.0344 5.22023,0.23018 10.287,1.77271 15.61042,1.01071 1.76953,-0.254 3.20939,-1.96057 4.7625,-2.76755 2.18704,-1.13559 5.00539,-1.80049 7.40833,-2.31007 6.89954,-1.46315 13.99196,-0.49768 20.6375,-3.36762 6.52727,-2.81861 12.78837,-7.69937 18.78542,-11.5107 13.53925,-8.60478 26.7036,-18.03744 36.95647,-30.54244 1.7772,-2.16746 2.79717,-4.87838 4.44791,-7.14375 3.68617,-5.0583 7.93459,-9.91235 10.63386,-15.61041 3.46499,-7.31494 2.60245,-16.45973 4.17619,-24.34167 1.59861,-8.00708 4.57888,-15.85198 5.14535,-24.07708 0.30348,-4.40902 -0.83397,-8.39126 -1.02447,-12.7 -0.27093,-6.13807 -0.22278,-12.15893 -1.1848,-18.25625 C 261.77541,94.112816 252.99865,75.528219 239.59459,59.486268 231.07924,49.295312 223.64022,38.038615 212.50814,30.434755 197.24353,20.007897 178.0369,17.177702 161.17898,10.267288 158.87975,9.3247629 156.68662,7.7739871 154.29981,7.0880284 148.44405,5.4049874 142.32053,4.7629496 136.30814,4.1884333 c -2.21747,-0.2119047 -4.19602,-1.1874234 -6.35,-1.4868788 -1.44621,-0.2010463 -2.80405,0.3981449 -4.23333,0.4630208 -1.77059,0.08038 -3.56738,0.060431 -5.29167,-0.3807354 -1.02896,-0.2632895 -2.37886,-1.0744967 -3.43958,-0.6353281 m 32.54375,33.5702362 c -1.79546,3.421856 -6.49367,5.926402 -9.26042,8.609277 -7.29959,7.077868 -14.10176,14.511866 -20.8571,22.082388 -1.92246,2.154502 -4.02881,4.527021 -5.68828,6.879431 -0.93001,1.318419 -2.02776,3.472921 -3.61712,3.968486 -0.51831,3.163887 -4.65296,7.044001 -6.53282,9.60067 -4.560362,6.201304 -8.896618,12.88362 -12.665078,19.55879 -10.063162,17.82445 -17.749043,36.80857 -19.152393,57.35929 -0.23204,3.3983 0.527579,6.459 0.75565,9.78958 0.479954,7.00484 1.39356,14.20865 3.8354,20.8571 5.877189,16.00359 17.625747,30.17176 33.570071,36.87868 5.71129,2.40242 11.80544,3.34143 17.91626,3.93938 4.00552,0.39212 7.80229,1.03214 11.90625,0.74295 19.37014,-1.36525 37.06362,-11.23606 48.00626,-27.49311 2.97048,-4.41325 6.01186,-9.16411 7.50649,-14.31105 2.51487,-8.66034 4.63815,-18.3814 3.43959,-27.49312 -2.18202,-16.58567 -11.16674,-29.91617 -20.80763,-43.13105 -3.09642,-4.24444 -5.77453,-8.81115 -8.86963,-13.03628 -5.56313,-7.59354 -11.48186,-15.595073 -14.60341,-24.530581 -4.57068,-13.08391 -5.96238,-25.217172 -3.36709,-38.893748 0.40984,-2.159794 0.95938,-4.724929 1.12422,-6.879166 0.0807,-1.057011 0.15901,-3.259138 0.95991,-4.037013 1.01362,-0.984514 3.42159,-0.309033 4.60295,0.0037 4.29472,1.137443 8.21637,4.061354 12.17084,6.038585 9.80228,4.901141 17.82365,11.62341 26.98749,17.45853 7.34325,4.675981 15.77473,8.580702 21.38627,15.461191 4.08438,5.007768 3.96796,10.621168 6.56167,16.139583 2.7813,5.916876 8.07852,10.590749 9.94436,16.933339 1.36129,4.62756 0.3392,9.32894 0.5715,14.02291 0.57309,11.57738 0.77894,23.38943 -0.31882,34.92499 -0.69532,7.30621 -1.18507,14.27427 -2.98318,21.43125 -0.76808,3.0578 -1.33958,6.51167 -2.98688,9.25645 -1.24354,2.07275 -4.09998,3.53007 -5.98117,5.00062 -3.30888,2.58631 -6.53838,5.54699 -9.525,8.49817 -3.38269,3.34248 -6.61458,6.95986 -10.31875,9.95362 -7.66947,6.19891 -16.5854,11.46704 -25.13541,16.32797 -5.72135,3.25305 -12.37986,6.97494 -18.78542,8.66245 -3.47795,0.91599 -7.29297,0.42572 -10.84791,0.51302 -4.2725,0.10452 -8.65929,0.60457 -12.96459,0.8001 -2.8313,0.12885 -5.28346,2.00422 -8.20208,1.79308 -5.22473,-0.37809 -10.70319,-2.41379 -15.61042,-4.1992 -12.630147,-4.59502 -25.971496,-11.4345 -35.450193,-21.1521 -5.501746,-5.64013 -9.414404,-12.7217 -14.414235,-18.78542 -3.544623,-4.29921 -8.272198,-7.28477 -11.433704,-11.90625 -6.661149,-9.73693 -7.586133,-23.79874 -8.860631,-35.18958 -0.39661,-3.54463 -1.980935,-7.0059 -2.068512,-10.58333 -0.107421,-4.37701 1.217083,-8.70585 1.990196,-12.96459 0.750358,-4.13305 1.140089,-8.31559 1.973527,-12.43541 0.663046,-3.27792 0.349779,-7.20064 1.589881,-10.31875 2.177521,-5.475294 7.699375,-10.194931 10.973858,-15.081256 2.795322,-4.171421 3.719247,-9.503039 6.471179,-13.493749 5.631126,-8.166364 13.797226,-14.501812 21.182805,-20.977489 4.244975,-3.721893 8.158426,-8.74686 12.964582,-11.707018 2.440782,-1.503098 5.255947,-1.544637 7.672917,-2.81305 2.56223,-1.344877 3.97404,-3.73671 6.87917,-4.735512 4.31456,-1.483519 8.99742,-1.041929 13.49375,-1.041929 3.81238,0 7.88696,-0.369094 11.64166,0.400843 4.46696,0.915988 8.61907,2.939521 13.22917,3.303323 m 19.57917,98.424997 c 1.79572,-0.50958 2.89163,0.67496 4.12009,1.87325 2.4458,2.38628 4.5212,5.38163 6.00842,8.4455 4.28651,8.831 8.92598,19.79242 5.68298,29.63333 -0.83555,2.53551 -1.11627,4.35849 -3.13531,6.33016 -7.05802,6.89293 -22.30226,2.10688 -20.27925,-8.97493 0.56462,-3.09298 2.1127,-6.27909 3.13875,-9.26147 1.6174,-4.70218 2.69902,-9.44219 3.79201,-14.2875 1.00515,-4.45532 2.091,-9.21174 0.67231,-13.75834 z"
       id="path448" />
  </g>
</svg>
