<?xml version="1.0" encoding="UTF-8" standalone="no"?>
<!-- Created with Inkscape (http://www.inkscape.org/) -->

<svg
   height="1000"
   width="1000"
   sodipodi:docname="Typography_Canvas.svg"
   version="1.1"
   id="svg93"
   viewBox="0 0 1000 1000"
   xmlns:inkscape="http://www.inkscape.org/namespaces/inkscape"
   xmlns:sodipodi="http://sodipodi.sourceforge.net/DTD/sodipodi-0.dtd"
   xmlns="http://www.w3.org/2000/svg"
   xmlns:svg="http://www.w3.org/2000/svg"
   xmlns:rdf="http://www.w3.org/1999/02/22-rdf-syntax-ns#"
   xmlns:cc="http://creativecommons.org/ns#"
   xmlns:dc="http://purl.org/dc/elements/1.1/">
  <sodipodi:namedview
     id="base"
     pagecolor="#ffffff"
     bordercolor="#000000"
     borderopacity="0.3"
     inkscape:pageopacity="0.0"
     inkscape:pageshadow="2"
     inkscape:zoom="0.5"
     inkscape:cx="500"
     inkscape:cy="500"
     inkscape:document-units="px"
     inkscape:current-layer="layer1"
     showgrid="false"
     showguides="true"
     inkscape:window-width="1280"
     inkscape:window-height="737"
     inkscape:window-x="0"
     inkscape:window-y="0"
     inkscape:window-maximized="1"
     showborder="true"
     inkscape:showpageshadow="false"
     inkscape:pagecheckerboard="0"
     inkscape:deskcolor="#d1d1d1">
    <sodipodi:guide
       id="guide_baseline"
       inkscape:label="baseline"
       position="0,253"
       orientation="0,1"
       inkscape:locked="false" />
    <sodipodi:guide
       id="guide_ascender"
       inkscape:label="ascender"
       position="0,945"
       orientation="0,1"
       inkscape:locked="false" />
    <sodipodi:guide
       id="guide_caps"
       inkscape:label="caps"
       position="0,896"
       orientation="0,1"
       inkscape:locked="false" />
    <sodipodi:guide
       id="guide_xheight"
       inkscape:label="xheight"
       position="0,729"
       orientation="0,1"
       inkscape:locked="false" />
    <sodipodi:guide
       id="guide_descender"
       inkscape:label="descender"
       position="0,28"
       orientation="0,1"
       inkscape:locked="false" />
  </sodipodi:namedview>
  <defs
     id="defs4" />
  <metadata
     id="metadata7">
    <rdf:RDF>
      <cc:Work
         rdf:about="">
        <dc:format>image/svg+xml</dc:format>
        <dc:type
           rdf:resource="http://purl.org/dc/dcmitype/StillImage" />
      </cc:Work>
    </rdf:RDF>
  </metadata>
  <g
     id="layer1"
     inkscape:groupmode="layer"
     inkscape:label="Layer 1">
    <path
       style="fill:#020202;stroke:none"
       d="m 502,60.4244 c -33.491,4.3974 -66.045,6.795 -99,15.4599 C 318.281,98.1592 239.908,146.08 181.17,211 143.721,252.39 115.068,300.288 94.3997,352 76.7557,396.144 68.1426,442.801 64.9105,490 52.7221,667.986 155.774,838.591 313,919.742 396.945,963.069 494.76,978.278 588,965.718 805.256,936.451 974.392,750.529 983.961,532 993.259,319.648 842.956,125.365 638,74.1265 595.569,63.5189 545.807,54.6724 502,60.4244 m -3,10.8611 c 37.35,-4.407 78.382,0.9898 115,8.3148 C 823.57,121.523 984.711,318.875 969.911,535 966.009,591.972 952.562,647.014 928.691,699 864.221,839.405 725.635,932.521 574,950.714 c -46.833,5.62 -94.85,2.318 -141,-6.914 -44.232,-8.848 -87.742,-25.046 -127,-47.224 -35.578,-20.1 -69.03,-44.685 -97.961,-73.615 C 81.4996,696.421 44.6368,498.473 116.86,335 138.728,285.503 169.734,239.345 208.039,201.039 261.623,147.456 330.016,107.712 403,87.4244 434.747,78.5998 466.478,75.1229 499,71.2855 m 14,49.1385 c -35.46,4.656 -69.397,6.848 -104,17.602 -91.744,28.51 -171.795,92.637 -219.573,175.974 -76.087,132.717 -65.847,303.126 27.227,425 30.421,39.834 68.359,73.146 111.346,98.799 33.518,20.003 70.855,35.305 109,43.777 45.33,10.067 91.919,13.202 138,7.142 C 762.793,864.025 909.332,703.962 913.985,514 918.241,340.273 798.487,182.049 632,134.86 595.52,124.519 551.01,115.434 513,120.424 M 489,172 c -27.221,95.921 -40.427,194.342 -37.985,294 0.577,23.573 3.495,47.724 7.399,71 1.906,11.37 6.74,24.537 6.457,36 -0.347,14.077 -5.942,29.118 -8.447,43 -6.044,33.498 -13.142,68.898 -13.424,103 h -1 C 415.034,668.418 399.691,608.085 389.576,552 366.859,426.05 370.67,296.457 395,171 l 94,1 m 268,59 c -4.385,9.404 -14.896,16.47 -21.911,24 -14.05,15.084 -27.37,30.934 -40.285,47 -37.507,46.657 -69.802,97.491 -96.557,151 -39.763,79.525 -65.074,165.16 -71.158,254 -2.213,32.32 -0.37,64.822 3.077,97 1.039,9.704 8.571,30.255 4.231,38.999 C 523.786,864.376 489.96,870 469,870 c -4.896,0 -19.727,1.828 -22.397,-3.434 -1.691,-3.335 -0.528,-8.924 -0.618,-12.566 -0.22,-9.009 -0.985,-17.937 -0.985,-27 0,-33.397 -0.344,-66.784 2.83,-100 13.736,-143.75 49.299,-285.673 123.567,-411 19.941,-33.652 41.052,-66.224 65.264,-97 7.119,-9.048 18.596,-28.436 29.354,-32.867 5.966,-2.458 18.666,6.919 23.985,9.623 22.32,11.347 43.891,25.623 67,35.244 M 549,219 c -1.3,12.975 -8.984,26.826 -13.576,39 -12.135,32.172 -28.5,65.56 -36.424,99 h 1 l 12.139,-26 35.285,-76 13.576,-37 67,2 c -5.12,12.11 -16.205,23.27 -23.859,34 -12.612,17.683 -23.818,36.362 -34.94,55 -32.363,54.23 -58.245,113.133 -78.201,173 -8.218,24.653 -18.522,51.173 -22,77 -3.683,-6.109 -3.935,-15.032 -5.08,-22 -2.878,-17.501 -5.156,-35.297 -5.959,-53 -2.864,-63.083 -1.131,-125.473 9.286,-188 3.069,-18.419 6.464,-36.701 10.153,-55 1.192,-5.917 1.71,-17.047 6.302,-21.397 C 487.244,216.249 496.475,218 501,218 c 16.019,0 31.946,1 48,1 m -51,138 -1,4 h 1 v -4 m -2,5 1,1 -1,-1 m 37,359 c 16.383,22.1 37.51,45.323 61,60 -1.333,7.357 -6.904,12.839 -12.004,18 -11.6,11.74 -26.348,29.948 -41.996,36 l -8,-85 z"
       id="path276" />
  </g>
</svg>
