<?xml version="1.0" encoding="UTF-8" standalone="no"?>
<!-- Created with Inkscape (http://www.inkscape.org/) -->

<svg
   height="1024"
   width="1024"
   sodipodi:docname="Typography_Canvas.svg"
   version="1.1"
   id="svg347"
   viewBox="0 0 1024 1024"
   inkscape:export-filename="pi_v2.svg"
   inkscape:export-xdpi="96"
   inkscape:export-ydpi="96"
   xmlns:inkscape="http://www.inkscape.org/namespaces/inkscape"
   xmlns:sodipodi="http://sodipodi.sourceforge.net/DTD/sodipodi-0.dtd"
   xmlns="http://www.w3.org/2000/svg"
   xmlns:svg="http://www.w3.org/2000/svg"
   xmlns:rdf="http://www.w3.org/1999/02/22-rdf-syntax-ns#"
   xmlns:cc="http://creativecommons.org/ns#"
   xmlns:dc="http://purl.org/dc/elements/1.1/">
  <sodipodi:namedview
     id="base"
     pagecolor="#ffffff"
     bordercolor="#000000"
     borderopacity="0.3"
     inkscape:pageopacity="0.0"
     inkscape:pageshadow="2"
     inkscape:zoom="0.5"
     inkscape:cx="500"
     inkscape:cy="500"
     inkscape:document-units="px"
     inkscape:current-layer="layer1"
     showgrid="false"
     showguides="true"
     inkscape:window-width="1280"
     inkscape:window-height="737"
     inkscape:window-x="0"
     inkscape:window-y="0"
     inkscape:window-maximized="1"
     showborder="true"
     inkscape:showpageshadow="false"
     inkscape:pagecheckerboard="0"
     inkscape:deskcolor="#d1d1d1">
    <sodipodi:guide
       id="guide_baseline"
       inkscape:label="baseline"
       position="0,277"
       orientation="0,1"
       inkscape:locked="false" />
    <sodipodi:guide
       id="guide_ascender"
       inkscape:label="ascender"
       position="0,969"
       orientation="0,1"
       inkscape:locked="false" />
    <sodipodi:guide
       id="guide_caps"
       inkscape:label="caps"
       position="0,920"
       orientation="0,1"
       inkscape:locked="false" />
    <sodipodi:guide
       id="guide_xheight"
       inkscape:label="xheight"
       position="0,753"
       orientation="0,1"
       inkscape:locked="false" />
    <sodipodi:guide
       id="guide_descender"
       inkscape:label="descender"
       position="0,52"
       orientation="0,1"
       inkscape:locked="false" />
  </sodipodi:namedview>
  <defs
     id="defs4" />
  <metadata
     id="metadata7">
    <rdf:RDF>
      <cc:Work
         rdf:about="">
        <dc:format>image/svg+xml</dc:format>
        <dc:type
           rdf:resource="http://purl.org/dc/dcmitype/StillImage" />
      </cc:Work>
    </rdf:RDF>
  </metadata>
  <g
     id="layer1"
     inkscape:groupmode="layer"
     inkscape:label="Layer 1">
    <path
       style="display:none;fill:#070504;stroke:none"
       d="m 513,0 c -3.936,31.1401 -17.658,58.6522 -23.686,89 -3.019,15.2 -3.557,30.878 -6.831,46 -1.887,8.717 -6.471,17.321 -7.864,26 -0.797,4.964 1.364,9.99 0.917,15 -1.379,15.464 -8.698,28.227 -18.54,39.96 -14.216,16.947 -45.493,19.538 -64.996,28.182 -22.741,10.079 -40.204,25.681 -60,40.38 -10.843,8.051 -23.688,14.061 -33.91,22.857 -20.349,17.51 -29.178,42.325 -41.97,64.621 -7.703,13.428 -16.037,25.501 -21.975,40 -6.219,15.185 -9.336,31.379 -14.17,47 -3.383,10.928 -9.177,22.704 -10.766,34 -2.106,14.979 0.202,31.092 1.621,46 3.822,40.132 15.044,80.93 37.348,115 9.555,14.596 22.723,25.121 34.497,37.83 16.092,17.371 30.428,37.358 49.325,51.87 16.428,12.616 37.632,20.762 56,30.192 18.385,9.438 34.584,15.427 55,18.861 6.861,1.154 21.775,2.159 25.91,8.391 3.548,5.345 3.453,14.648 4.271,20.856 1.313,9.98 3.755,20.089 5.623,30 7.407,39.303 14.835,78.594 26.161,117 3.944,13.376 7.255,37.59 18.035,47 6.976,-20.116 6.851,-42.151 10.324,-63 3.492,-20.959 10.6,-40.364 8.506,-62 -2.216,-22.906 -9.665,-48.054 -5.91,-71 0.983,-6.01 0.659,-13.653 4.088,-18.907 11.952,-18.311 45.815,-12.347 63.992,-17.652 8.964,-2.616 16.085,-8.171 24,-12.865 18.097,-10.731 35.886,-22.035 53,-34.286 25.248,-18.074 43.505,-38.497 61.49,-63.29 8.017,-11.052 17.216,-21.525 23.02,-34 7.258,-15.598 5.08,-34.349 8.7,-51 3.903,-17.953 9.842,-35.622 11.62,-54 0.933,-9.643 -1.372,-18.525 -1.791,-28 -1.99,-45.061 -9.961,-89.88 -34.104,-129 -9.958,-16.136 -21.926,-30.239 -33.735,-45 -20.37,-25.461 -40.094,-48.882 -70.2,-62.917 -23.664,-11.031 -49.097,-18.747 -74,-26.496 -8.495,-2.643 -26.908,-7.148 -32.062,-14.801 -3.151,-4.68 -2.496,-12.388 -3.602,-17.786 -2.572,-12.546 -5.704,-26.118 -5.293,-39 0.302,-9.456 3.714,-18.658 3.942,-28 0.24,-9.804 -5.314,-17.591 -6.779,-27 -2.973,-19.093 -1.196,-39.8787 0.624,-59 1.256,-13.1965 0.486,-31.3683 -3.742,-44 C 523.059,6.93964 519.662,1.03107 513,0 m -44,732 c -2.391,7.133 -17.767,-0.281 -23,-2.228 -22.418,-8.339 -43.552,-19.384 -63,-33.351 -18.837,-13.528 -30.32,-32.334 -44.235,-50.421 -8.853,-11.506 -21.677,-19.622 -29.304,-32 -12.616,-20.474 -14.388,-45.792 -17.732,-69 -1.461,-10.138 -5.299,-20.806 -5.599,-31 -0.523,-17.736 5.778,-38.552 9.066,-56 1.403,-7.447 0.861,-16.124 4.358,-23 8.058,-15.843 22.418,-27.742 30.126,-44 2.78,-5.864 4.225,-12.557 7.799,-18 13.03,-19.846 33.906,-34.756 51.521,-50.286 9.606,-8.468 17.496,-19.594 30,-24 11.949,-4.211 23.753,-1.912 36,-2.057 5.779,-0.069 11.303,-2.79 17,-3.473 10.082,-1.207 20.849,-0.184 31,-0.184 19.499,0 42.419,-3.34 61,3.559 8.567,3.181 13.896,10.3 21.089,15.348 14.496,10.173 29.331,20.089 43.911,30.208 16.387,11.372 35.56,19.434 48.79,34.885 9.775,11.416 9.654,25.269 16.02,38 6.026,12.052 16.858,21.873 20.631,35 4.581,15.939 1.367,35.52 1.563,52 0.462,38.897 3.999,84.633 -12.932,120.999 -4.225,9.075 -16.784,15.385 -24.072,22.087 -21.459,19.732 -41.674,37.697 -66,53.914 -18.257,12.171 -42.323,28.859 -64,33.482 -13.937,2.973 -30.758,0.518 -45,0.518 -10.955,0 -24.478,2.11 -35,-1 M 454,410 v 1 c -11.699,-4.513 -23.796,-9.836 -36,-12.765 -5.425,-1.301 -16.318,-1.644 -20.272,-5.799 C 390.245,384.573 389.697,362.422 387,352 c -11.302,5.177 -21.237,17.604 -29.08,27 -26.534,31.786 -38.225,67.303 -41.01,108 -1.393,20.374 0.44,45.767 16.13,60.907 14.252,13.752 39.425,14.957 57.96,18.693 13.298,2.681 23.532,3.689 30.561,16.4 4.257,7.698 0.553,13.852 0.443,22 -0.29,21.351 -4.003,42.638 -4.004,64 -10e-4,11.548 -0.821,25.119 11.001,31.583 2.188,1.196 4.567,1.851 6.999,2.321 22.987,4.446 13.038,-26.34 13.183,-39.904 0.037,-3.452 1.408,-6.769 2.484,-10 1.915,-5.753 2.47,-12.906 9.333,-14 1.718,12.749 6.503,25.504 9.627,38 1.297,5.19 1.718,13.221 4.687,17.682 2.326,3.496 15.904,3.802 19.083,1.29 2.99,-2.362 2.429,-10.476 2.885,-13.972 1.464,-11.237 0.514,-27.559 5.307,-37.852 1.821,-3.911 8.948,-4.252 11.383,-0.714 1.995,2.898 1.028,8.234 1.028,11.566 v 12 19 c 7.844,0.413 29.556,-12.817 30.852,-21.015 0.857,-5.423 -4.7,-17.327 0.582,-20.957 8.075,-5.551 11.546,7.972 13.211,12.972 3.236,9.719 -0.1,16.339 -0.541,26 -0.364,7.981 2.098,17.584 4.896,25 6.65,-1.29 19.176,-1.473 24.436,-5.938 6.787,-5.76 5.229,-26.193 4.653,-34.062 -1.5,-20.48 -3.089,-40.414 -3.089,-61 0,-8.038 -1.842,-18.9 2.728,-26 6.959,-10.814 19.73,-12.452 31.272,-14.611 20.967,-3.922 47.559,-4.678 62.181,-22.428 11.969,-14.53 12.638,-33.155 11.858,-50.961 -1.49,-34.042 -11.978,-67.396 -31.039,-96 -6.599,-9.903 -15.661,-27.949 -27,-32.928 -5.207,-2.287 -14.276,4.457 -19,6.619 -14.527,6.651 -30.752,14.175 -47,14.309 v -1 c 15.633,-5.691 41.197,-21 49,-36 -49.428,-35.505 -111.667,-44.573 -171,-32.334 -13.098,2.702 -39.173,9.023 -47.258,20.518 -3.542,5.037 -1.426,13.191 -0.792,18.816 2.855,25.342 28.044,44.59 50.05,55 m -58,33.3 c 28.626,-4.125 56.327,16.375 69.218,40.7 11.232,21.192 12.132,45.501 -16.218,49.572 -20.742,2.978 -45.202,1.437 -66,-0.497 -9.819,-0.913 -21.242,-2.436 -28.699,-9.543 -7.903,-7.531 -8.228,-19.439 -6.546,-29.532 3.954,-23.724 23.656,-47.156 48.245,-50.7 m 215,0.075 c 25.174,-1.256 48.249,18.873 56.301,41.625 8.551,24.161 -1.119,47.038 -28.301,48.911 -21.127,1.454 -42.82,0.089 -64,0.089 -8.136,0 -18.388,1.773 -24.895,-4.225 -9.168,-8.449 -6.269,-24.318 -2.749,-34.775 9.018,-26.796 34.82,-50.187 63.644,-51.625 M 497,519 c 4.992,16.889 2.878,39.302 4.09,57 0.274,4.005 -0.607,16.826 3.324,18.94 5.951,3.199 5.56,-14.301 5.871,-16.94 2.278,-19.293 3.28,-38.733 5.715,-58 h 1 c 4.632,16.204 14.811,30.962 19.363,47 2.143,7.553 0.637,17.189 0.637,25 0,5.989 1.766,21.273 -4.419,24.929 -4.425,2.616 -14.775,-3.592 -19.581,-4.465 -12.075,-2.191 -21.744,0.867 -33,4.536 -10.57,-20.161 -5.825,-56.562 2.204,-77 3.012,-7.666 7.02,-17.295 14.796,-21 z"
       id="path425" />
    <path
       style="display:none;fill:#070504;stroke:none"
       d="m 513,0 c -3.933,31.1216 -17.657,58.6484 -23.686,89 -3.019,15.2 -3.557,30.878 -6.831,46 -1.887,8.717 -6.471,17.321 -7.864,26 -0.799,4.978 1.436,9.995 1.056,15 -1.161,15.31 -9.016,28.441 -18.679,39.96 -5.62,6.699 -13.217,9.035 -20.996,12.324 -16.713,7.066 -34.318,11.676 -51,18.944 -19.901,8.669 -35.755,24.489 -53,37.294 -10.902,8.095 -23.546,14.225 -33.91,22.996 -20.483,17.333 -29.069,42.259 -41.818,64.482 -7.705,13.429 -16.181,25.481 -22.127,40 -6.219,15.185 -9.336,31.379 -14.17,47 -3.383,10.928 -9.177,22.704 -10.766,34 -2.066,14.691 0.23,30.39 1.621,45 3.739,39.261 14.043,79.324 35.456,113 10.151,15.963 23.84,27.276 36.624,41 16.097,17.28 30.231,37.217 49.09,51.7 13.983,10.738 32.174,18.489 48,26.192 20.263,9.862 37.566,18.616 60,22.355 7.469,1.245 24.398,2.098 28.91,8.897 3.336,5.027 3.474,13.985 4.249,19.856 1.364,10.34 3.712,20.745 5.645,31 7.286,38.658 14.926,77.12 25.617,115 3.901,13.823 7.482,39.32 18.579,49 6.945,-20.025 6.863,-42.227 10.324,-63 3.492,-20.959 10.6,-40.364 8.506,-62 -2.219,-22.934 -9.671,-48.018 -5.91,-71 1.001,-6.12 0.549,-13.551 4.085,-18.907 12.117,-18.348 45.713,-12.31 63.995,-17.652 8.887,-2.596 16.148,-8.208 24,-12.865 18.097,-10.731 35.886,-22.035 53,-34.286 25.243,-18.07 43.511,-38.506 61.49,-63.29 8.017,-11.052 17.216,-21.525 23.02,-34 7.258,-15.598 5.08,-34.349 8.7,-51 3.904,-17.958 9.783,-35.632 11.619,-54 0.964,-9.64 -1.371,-18.529 -1.79,-28 -1.99,-45.061 -9.961,-89.88 -34.104,-129 C 722.912,333.213 686.998,288.6 640,266.255 c -23.962,-11.392 -50.547,-16.049 -75,-26.116 -7.058,-2.906 -20.693,-5.692 -25.062,-12.328 -3.125,-4.747 -2.487,-12.369 -3.602,-17.811 -2.582,-12.594 -5.705,-26.068 -5.293,-39 0.302,-9.456 3.714,-18.658 3.942,-28 0.24,-9.804 -5.314,-17.591 -6.779,-27 -2.973,-19.093 -1.196,-39.8787 0.624,-59 1.256,-13.1965 0.486,-31.3683 -3.742,-44 C 523.059,6.93964 519.662,1.03107 513,0 m 15,295 c -17.329,18.961 -54.342,30.406 -62.528,57 -2.518,8.181 10.942,13.111 15.314,18.04 10.306,11.617 5.114,31.743 -6.79,40.16 -21.278,15.046 -23.173,-16.192 -38.996,-23.797 -12.383,-5.952 -20.422,6.466 -32,4.249 -15.175,-2.906 -21.298,-28.109 -24.475,-40.652 -1.027,-4.055 -3.862,-9.788 -2.748,-13.996 1.886,-7.123 14.114,-13.92 19.223,-19.005 5.318,-5.293 10.529,-11.094 17,-15.023 15.019,-9.117 30.82,-4.18 47,-5.084 22.93,-1.281 45.843,-1.892 69,-1.892 m 150,83 c -28.002,-0.578 -64.958,-17.907 -91.995,-4.431 -15.917,7.933 7.798,35.749 -14.006,42.963 -2.241,0.741 -4.631,1.245 -6.999,1.078 -3.066,-0.217 -6.189,-1.299 -9,-2.486 -4.161,-1.756 -11.662,-4.72 -13.357,-9.308 -3.478,-9.416 4.199,-22.02 0.607,-32.816 -3.997,-12.013 -16.317,-17.323 -22.176,-28 -7.469,-13.611 4.419,-37.99 14.595,-47.682 8.006,-7.626 30.443,4.896 38.331,8.94 21.959,11.256 40.296,26.676 61,39.789 14.709,9.316 32.716,17.353 43,31.953 M 373,338 c -1.737,21.829 -9.086,43.13 -11,65 -0.684,7.818 -1.833,18.813 2.14,25.995 5.965,10.786 15.813,3.344 24.86,3.135 11.876,-0.274 25.05,14.222 24.739,25.87 -0.091,3.429 -1.145,6.895 -2.535,10 -1.784,3.989 -4.097,10.889 -8.309,12.882 -9.108,4.309 -20.417,-8.035 -30.895,-3.515 -11.48,4.953 -13.149,18.479 -23.015,24.74 -12.309,7.811 -33.091,-4.742 -43.985,-10.365 -3.722,-1.921 -8.551,-3.887 -11.667,-6.707 -3.093,-2.8 -1.286,-7.482 -0.76,-11.035 1.333,-9.014 2.867,-17.977 4.156,-27 2.404,-16.827 14.607,-27.433 23.924,-41 16.522,-24.059 23.977,-53.302 52.347,-68 m 309,45 10.876,30 20.934,35 2.19,32 1,41 c -18.785,-15.525 -24.323,-44.81 -48,-55.951 -25.458,-11.978 -30.955,37.128 -53.96,17.611 -2.551,-2.165 -4.465,-4.842 -6.225,-7.66 -2.216,-3.548 -4.07,-6.873 -4.815,-11 9.593,-5.518 28.533,-15.746 29.606,-28 0.877,-10.008 -9.544,-23.59 -4.288,-32.829 C 637.064,389.554 668.016,385.885 682,383 m -183,32.286 c 10.254,-1.227 20.991,0.068 31,2.365 77.152,17.706 94.701,123.806 31,167.461 -12.732,8.725 -27.861,12.81 -43,14.602 C 439.811,608.97 384.852,517.858 431.489,454 c 6.863,-9.397 15.661,-17.968 25.511,-24.188 13.004,-8.213 26.75,-12.703 42,-14.526 m 0,10.139 c -13.332,1.815 -25.662,5.735 -37,13.119 -9.119,5.938 -16.973,13.673 -23.359,22.456 -28.625,39.372 -13.557,96.484 28.359,119.652 15.712,8.685 35.285,11.237 53,9.062 12.159,-1.494 23.595,-5.082 34,-11.668 60.349,-38.204 43.234,-129.502 -23,-149.702 -10.156,-3.097 -21.445,-4.356 -32,-2.919 M 291,488 h 1 c 12.327,18.122 24.872,38.133 40.039,54 5.924,6.197 12.975,13.903 21.961,15.226 19.862,2.924 21.57,-31.843 44,-21.877 2.414,1.072 4.825,2.429 6.815,4.18 2.066,1.819 3.582,4.107 4.952,6.472 10.812,18.67 -11.407,20.278 -18.767,34.999 -4.991,9.982 2.118,20.053 -0.569,30 -4.294,15.893 -37.479,28.032 -52.431,28.967 -4.791,0.299 -7.888,-3.896 -10.996,-6.952 C 319.803,625.935 312.73,619.973 307.731,611 295.17,588.452 294.992,561.754 290.537,537 287.693,521.198 282.851,503.301 291,488 m 352,190 c 2.594,-20.418 6.862,-40.529 9.286,-61 1.013,-8.559 2.211,-23.408 -3.14,-30.852 -4.727,-6.575 -14.907,-0.917 -21.146,-0.325 -11.832,1.122 -29.749,-12.132 -28.88,-24.823 0.227,-3.305 1.716,-6.162 3.305,-9 1.884,-3.365 4.022,-9.12 7.76,-10.799 9.219,-4.139 23.07,5.873 33.815,2.034 12.11,-4.326 11.798,-17.85 21.043,-24.582 11.121,-8.099 40.628,6.462 49.639,14.313 3.576,3.116 1.685,7.989 1.407,12.034 -0.681,9.953 -0.396,20.142 -2.009,30 -2.628,16.06 -3.356,34.371 -11.42,48.996 -4.131,7.492 -14.238,12.884 -20.66,18.429 -12.858,11.103 -24.326,27.093 -39,35.575 m -168,51 c 19.157,-11.02 38.342,-26.225 55,-40.718 7.622,-6.632 17.119,-14.512 20.782,-24.282 3.746,-9.993 -11.812,-15.329 -16.557,-22.039 -13.87,-19.613 6.94,-35.594 23.775,-39.961 5.114,12.284 15.17,31.987 31,30.903 8.195,-0.561 15.57,-8.74 23.985,-5.544 12.953,4.92 18.157,25.951 22.016,37.641 1.336,4.047 4.364,9.613 3.588,13.96 -1.081,6.049 -11.908,10.919 -16.589,14.04 -16.656,11.105 -33.551,21.926 -52,29.85 -13.804,5.928 -27.33,7.217 -42,9.45 -21.098,3.211 -41.53,5.481 -63,3.057 -12.135,-1.37 -24.975,-7.587 -36,-12.496 -38.019,-16.929 -70.457,-42.006 -91,-78.861 26.704,1.147 63.545,18.539 88.999,4.583 18.026,-9.884 -1.214,-38.694 20.001,-44.656 3.475,-0.976 7.393,-1.664 11,-1.823 2.721,-0.12 5.398,0.324 8,1.106 20.411,6.132 1.471,23.419 5.8,37.79 4.108,13.635 19.789,17.659 25.11,30 2.546,5.905 0.022,13.342 -2.103,19 -5.217,13.892 -12.635,26.118 -19.807,39 m -1,0 -1,2 z"
       id="path534" />
    <path
       style="display:none;fill:#080504;stroke:none"
       d="m 513,0 c -3.933,31.1216 -17.657,58.6484 -23.686,89 -3.019,15.2 -3.557,30.878 -6.831,46 -1.887,8.717 -6.471,17.321 -7.864,26 -0.797,4.964 1.364,9.99 0.917,15 -1.379,15.464 -8.698,28.227 -18.54,39.96 -14.216,16.947 -45.493,19.538 -64.996,28.182 -22.725,10.072 -40.214,25.687 -60,40.38 -10.843,8.051 -23.688,14.061 -33.91,22.857 -20.349,17.51 -29.178,42.325 -41.97,64.621 -7.69,13.406 -16.045,25.52 -21.975,40 -6.219,15.185 -9.336,31.379 -14.17,47 -3.383,10.928 -9.177,22.704 -10.766,34 -2.106,14.979 0.202,31.092 1.621,46 3.822,40.132 15.044,80.93 37.348,115 9.609,14.677 22.858,25.253 34.732,38 16.097,17.28 30.231,37.217 49.09,51.7 16.428,12.616 37.632,20.762 56,30.192 18.385,9.438 34.584,15.427 55,18.861 6.861,1.154 21.775,2.159 25.91,8.391 3.548,5.345 3.453,14.648 4.271,20.856 1.313,9.98 3.755,20.089 5.623,30 7.288,38.67 14.923,77.107 25.617,115 3.901,13.823 7.482,39.32 18.579,49 6.965,-20.083 6.855,-42.177 10.324,-63 3.492,-20.959 10.6,-40.364 8.506,-62 -2.219,-22.934 -9.671,-48.018 -5.91,-71 0.983,-6.01 0.659,-13.653 4.088,-18.907 11.955,-18.315 45.814,-12.34 63.992,-17.652 8.887,-2.596 16.148,-8.208 24,-12.865 18.097,-10.731 35.886,-22.035 53,-34.286 25.248,-18.074 43.505,-38.497 61.49,-63.29 8.017,-11.052 17.216,-21.525 23.02,-34 7.258,-15.598 5.08,-34.349 8.7,-51 3.903,-17.953 9.842,-35.622 11.62,-54 0.933,-9.643 -1.372,-18.525 -1.791,-28 -1.99,-45.061 -9.961,-89.88 -34.104,-129 C 722.912,333.213 686.998,288.6 640,266.255 c -23.973,-11.397 -50.536,-16.044 -75,-26.116 -7.058,-2.906 -20.693,-5.692 -25.062,-12.328 -3.125,-4.747 -2.487,-12.369 -3.602,-17.811 -2.572,-12.546 -5.704,-26.118 -5.293,-39 0.302,-9.456 3.714,-18.658 3.942,-28 0.24,-9.804 -5.314,-17.591 -6.779,-27 -2.973,-19.093 -1.196,-39.8787 0.624,-59 1.256,-13.1965 0.486,-31.3683 -3.742,-44 C 523.059,6.93964 519.662,1.03107 513,0 m -59,286.325 c 20.268,-3.28 43.789,-0.516 64,1.504 8.577,0.858 17.672,0.372 26,3.087 5.866,1.912 10.471,6.334 16,8.964 25.094,11.937 46.249,26.446 69,42.235 16.635,11.544 36.662,19.71 49.621,35.885 9.248,11.543 9.071,25.537 15.702,38 5.971,11.221 15.983,20.734 19.812,33 3.696,11.84 1.865,25.729 1.865,38 0,19.449 1.421,38.56 0.089,58 -1.756,25.646 -1.144,55.562 -13.479,78.996 -4.475,8.501 -16.566,14.612 -23.61,21.09 -19.585,18.009 -37.781,35.101 -60,49.914 -19.599,13.066 -39.411,23.358 -61,32.598 -5.842,2.5 -10.491,7.245 -17,8.192 -15.116,2.199 -31.722,0.032 -47,0.214 -7.749,0.092 -15.191,2.974 -23,1.67 -34.015,-5.68 -73.612,-26.988 -99,-49.845 -13.569,-12.215 -22.822,-28.573 -34.015,-42.829 -8.702,-11.084 -21.107,-18.962 -28.524,-31 -12.616,-20.474 -14.388,-45.792 -17.732,-69 -1.464,-10.16 -5.332,-20.771 -5.6,-31 -0.466,-17.773 5.772,-38.518 9.067,-56 1.327,-7.043 0.787,-15.382 3.724,-22 6.616,-14.91 20.538,-26.735 28.652,-41 3.973,-6.985 5.515,-15.311 9.907,-22 9.406,-14.325 23.229,-25.172 35.806,-36.513 24.686,-22.259 46.418,-44.611 80.715,-50.162 M 424,331 v 1 c 27.263,5.061 55.142,3.482 82,12.029 3.11,0.989 6.109,2.24 9,3.756 2.083,1.092 4.139,2.277 5.985,3.744 17.798,14.154 -15.413,19.944 -24.985,21.871 -7.664,1.542 -15.325,3.112 -23,4.6 v 1 c 14.385,3.328 28.93,11.75 44,8.483 17.438,-3.781 34.475,-21.02 53,-14.884 17.426,5.772 26.763,26.555 29.13,43.401 0.81,5.761 1.814,15.225 -3.524,19.381 -6.182,4.812 -14.154,-7.324 -17.117,-11.381 -3.758,-5.146 -6.791,-10.796 -10.489,-16 h -1 c -7.922,26.8 18.748,54.367 40,65.766 5.975,3.205 12.252,5.871 19,6.938 2.807,0.444 7.081,0.141 8.111,3.524 3.481,11.427 -8.332,35.565 -14.474,44.772 -2.069,3.102 -7.64,11.755 -12.297,9.168 -4.007,-2.226 -5.116,-9.115 -5.748,-13.168 -2.048,-13.14 6.299,-25.847 6.408,-39 -34.592,17.945 -14.468,59.125 -25.464,87 -5.887,14.921 -20.051,32.469 -36.536,35.532 -11.276,2.096 -33.426,-4.876 -31.392,-19.532 2.466,-17.768 26.044,-25.074 37.353,-36.089 17.708,-17.25 26.972,-46.539 27.039,-70.911 -25.838,9.779 -46.422,29.997 -75,33.711 -16.369,2.127 -31.877,-5.981 -48,-7.541 -28.879,-2.795 -58.811,10.279 -77.714,31.83 -46.217,52.692 -24.847,145.267 42.714,169.308 21.885,7.787 48.223,5.341 71,3.781 43.41,-2.972 81.527,-8.239 122,-25.089 v -1 c -19.419,-0.161 -39.66,-0.143 -59,-2.105 -5.936,-0.602 -15.182,-7.009 -11.214,-13.88 3.273,-5.668 10.438,-7.48 16.214,-9.344 16.466,-5.315 33.053,-4.6 50,-5.76 43.314,-2.967 91.912,-33.995 94,-81.911 -8.117,5.718 -14.699,13.311 -23,18.971 -16.033,10.933 -37.683,19.426 -57,22.029 16.514,-28.984 46.867,-47.811 63.573,-77 24.061,-42.041 12.452,-93.476 -10.97,-133 -6.326,-10.676 -12.867,-24.074 -22.603,-32 8.983,26.389 27.605,55.092 15,83 h -2 C 661.131,435.319 653.224,415.275 641.771,397 594.085,320.913 503.819,315.521 424,331 m -68,80 34,-20 5,23 c 7.753,-8.924 11.609,-22.635 22.004,-29.262 8.203,-5.229 21.267,-0.536 26.539,-10.753 C 454.712,352.339 425.389,343.757 410,347.666 384.902,354.041 359.409,385.703 356,411 m 107,-9 v 2 c 15.571,9.573 23.485,28.713 39,36.865 19.382,10.183 58.177,-10.19 40.348,-33.771 -6.55,-8.663 -19.963,-7.636 -27.348,-0.989 -3.67,3.303 -8.374,10.62 -14,10.028 C 486.611,414.621 479.149,398.157 463,402 m 161,213 -1,1 z"
       id="path646" />
    <path
       style="display:none;fill:#070503;stroke:none"
       d="m 513,0 c -3.938,31.1577 -17.107,58.6941 -23.711,89 -3.237,14.856 -3.888,30.083 -6.75,45 -1.753,9.142 -6.47,17.971 -7.92,27 -0.798,4.967 1.38,9.988 0.916,15 -1.428,15.466 -8.699,28.23 -18.539,39.96 -14.201,16.931 -44.665,18.911 -63.996,27.659 -23.087,10.448 -40.818,25.917 -61,40.903 -10.843,8.051 -23.688,14.061 -33.91,22.857 -20.349,17.51 -29.178,42.325 -41.97,64.621 -7.518,13.105 -15.92,24.811 -21.667,39 -6.288,15.525 -9.677,32.046 -14.644,48 -3.489,11.205 -9.246,23.42 -10.901,35 -2.065,14.452 0.55,30.586 1.922,45 3.822,40.132 15.044,80.93 37.348,115 9.555,14.596 22.723,25.121 34.497,37.83 16.092,17.371 30.428,37.358 49.325,51.87 16.428,12.616 37.632,20.762 56,30.192 18.408,9.45 34.558,15.423 55,18.861 6.861,1.154 21.775,2.159 25.91,8.391 3.548,5.345 3.453,14.648 4.271,20.856 1.313,9.98 3.755,20.089 5.623,30 7.406,39.298 14.835,78.592 26.161,117 3.959,13.427 7.195,37.54 18.035,47 6.976,-20.116 6.851,-42.151 10.324,-63 3.548,-21.298 10.704,-41.009 8.505,-63 -2.259,-22.601 -9.621,-47.322 -5.909,-70 0.983,-6.01 0.659,-13.653 4.088,-18.907 11.874,-18.192 45.011,-12.224 62.992,-17.365 9.386,-2.683 16.724,-8.244 25,-13.152 18.097,-10.731 35.886,-22.035 53,-34.286 25.248,-18.074 43.505,-38.497 61.49,-63.29 8.017,-11.052 17.216,-21.525 23.02,-34 7.266,-15.617 5.128,-34.32 8.701,-51 3.849,-17.973 9.84,-35.612 11.619,-54 0.933,-9.643 -1.372,-18.525 -1.791,-28 -1.99,-45.061 -9.961,-89.88 -34.104,-129 -9.958,-16.136 -21.926,-30.239 -33.735,-45 -20.37,-25.461 -40.094,-48.882 -70.2,-62.917 -23.664,-11.031 -49.097,-18.747 -74,-26.496 -8.495,-2.643 -26.908,-7.148 -32.062,-14.801 -3.209,-4.765 -2.333,-12.332 -3.451,-17.786 -2.525,-12.319 -5.677,-25.331 -5.433,-38 0.189,-9.785 3.695,-19.33 3.931,-29 0.24,-9.804 -5.314,-17.591 -6.779,-27 -2.973,-19.093 -1.196,-39.8787 0.624,-59 1.256,-13.1965 0.486,-31.3683 -3.742,-44 C 523.059,6.93964 519.662,1.03107 513,0 m 15,292 c -15.523,16.787 -33.851,31.137 -49.579,47.899 -45.995,49.019 -89.19,109.53 -109.776,174.101 -6.917,21.696 -13.166,46.019 -11.555,69 3.195,45.592 17.434,87.735 52.949,118.586 52.708,45.786 146.325,36.966 190.497,-16.586 9.203,-11.157 18.528,-23.312 23.619,-37 4.96,-13.336 9.775,-27.231 10.907,-41.576 5.305,-67.24 -41.751,-116.078 -76.721,-168.142 C 535.917,404.897 527.037,372.548 528.96,333 c 0.501,-10.313 2.139,-19.904 4.446,-30 0.643,-2.815 -0.096,-7.037 1.773,-9.397 2.188,-2.762 7.942,-1.58 10.821,-0.842 9.495,2.432 18.231,8.896 27,13.214 21.153,10.418 38.327,24.993 58,37.59 16.263,10.413 35.291,19.045 47.621,34.435 8.805,10.99 9.019,23.852 14.702,36 5.89,12.589 17.058,22.504 21.107,36 3.695,12.317 1.57,27.252 1.57,40 0,23.193 1.375,45.825 -0.83,69 -2,21.01 -1.613,47.285 -13.093,65.985 -7.29,11.875 -24.964,21.164 -35.077,31.03 -23.202,22.633 -48.633,41.019 -77,56.845 -12.352,6.892 -27.127,15.427 -41,18.611 -15.468,3.549 -34.111,1.791 -50,2.569 -7.71,0.378 -13.994,4.607 -22,3.856 C 440.182,734.44 395.013,710.663 369.004,684.985 356.69,672.829 347.97,657.444 337.192,644 c -8.549,-10.665 -20.524,-18.303 -27.731,-30 -11.49,-18.647 -13.989,-41.774 -16.886,-63 -1.65,-12.084 -6.089,-24.896 -6.445,-37 -0.284,-9.632 3.309,-19.549 4.736,-29 2.28,-15.112 2.41,-33.715 7.797,-48 4.592,-12.178 16.188,-22.235 23.333,-33 6.488,-9.775 9.185,-21.407 15.483,-31 11.147,-16.978 28.346,-30.097 43.521,-43.282 10.016,-8.702 18.918,-19.801 30,-27.109 5.329,-3.514 11.582,-3.809 17,-6.749 6.404,-3.474 10.649,-8.985 18,-11.071 26.249,-7.45 56.547,2.275 82,7.211 m 43,215 c 9.578,1.452 15.451,11.956 20.055,19.576 11.903,19.7 28.517,64.286 6.76,83.12 -16.078,13.918 -46.773,3.925 -43.605,-19.696 3.802,-28.347 22.311,-53.26 16.79,-83 z"
       id="path761" />
    <path
       style="fill:#080605;stroke:none"
       d="m 513,0 c -3.936,31.1401 -17.658,58.6522 -23.686,89 -3.019,15.2 -3.557,30.878 -6.831,46 -1.887,8.717 -6.471,17.321 -7.864,26 -0.797,4.964 1.364,9.99 0.917,15 -1.379,15.464 -8.698,28.227 -18.54,39.96 -14.216,16.947 -45.493,19.538 -64.996,28.182 -22.741,10.079 -40.204,25.681 -60,40.38 -10.843,8.051 -23.688,14.061 -33.91,22.857 -20.349,17.51 -29.178,42.325 -41.97,64.621 -7.703,13.428 -16.037,25.501 -21.975,40 -6.219,15.185 -9.336,31.379 -14.17,47 -3.383,10.928 -9.177,22.704 -10.766,34 -2.106,14.979 0.202,31.092 1.621,46 3.822,40.132 15.044,80.93 37.348,115 9.555,14.596 22.723,25.121 34.497,37.83 16.092,17.371 30.428,37.358 49.325,51.87 16.428,12.616 37.632,20.762 56,30.192 18.385,9.438 34.584,15.427 55,18.861 6.861,1.154 21.775,2.159 25.91,8.391 3.548,5.345 3.453,14.648 4.271,20.856 1.313,9.98 3.755,20.089 5.623,30 7.407,39.303 14.835,78.594 26.161,117 3.944,13.376 7.255,37.59 18.035,47 6.976,-20.116 6.851,-42.151 10.324,-63 3.492,-20.959 10.6,-40.364 8.506,-62 -2.216,-22.906 -9.665,-48.054 -5.91,-71 0.983,-6.01 0.659,-13.653 4.088,-18.907 11.952,-18.311 45.815,-12.347 63.992,-17.652 8.964,-2.616 16.085,-8.171 24,-12.865 18.097,-10.731 35.886,-22.035 53,-34.286 25.248,-18.074 43.505,-38.497 61.49,-63.29 8.017,-11.052 17.216,-21.525 23.02,-34 7.258,-15.598 5.08,-34.349 8.7,-51 3.903,-17.953 9.842,-35.622 11.62,-54 0.933,-9.643 -1.372,-18.525 -1.791,-28 -1.99,-45.061 -9.961,-89.88 -34.104,-129 -9.958,-16.136 -21.926,-30.239 -33.735,-45 -20.37,-25.461 -40.094,-48.882 -70.2,-62.917 -23.664,-11.031 -49.097,-18.747 -74,-26.496 -8.495,-2.643 -26.908,-7.148 -32.062,-14.801 -3.151,-4.68 -2.496,-12.388 -3.602,-17.786 -2.572,-12.546 -5.704,-26.118 -5.293,-39 0.302,-9.456 3.714,-18.658 3.942,-28 0.24,-9.804 -5.314,-17.591 -6.779,-27 -2.973,-19.093 -1.196,-39.8787 0.624,-59 1.256,-13.1965 0.486,-31.3683 -3.742,-44 C 523.059,6.93964 519.662,1.03107 513,0 m 40,301 c 4.013,-5.94 19.003,4.421 24,6.92 23.721,11.862 43.258,29.572 66,42.941 15.68,9.218 32.721,19.492 41.367,36.139 4.465,8.597 4.905,18.34 8.956,27 5.883,12.575 17.234,22.488 21.118,36 4.307,14.986 1.553,33.503 1.559,49 0.012,29.98 1.754,60.221 -3.464,90 -2.003,11.432 -4.312,25.972 -10.459,35.985 -4.901,7.984 -16.167,13.746 -23.077,20.101 -19.899,18.298 -38.427,35.532 -61,50.581 -19.884,13.256 -42.315,28.332 -66,33.653 -12.693,2.852 -27.009,2.68 -40,2.68 -15.289,0 -31.922,4.852 -47,3.353 -20.579,-2.045 -42.344,-14.969 -60,-24.813 -29.417,-16.402 -46.153,-38.437 -66.235,-64.54 -8.853,-11.506 -21.677,-19.622 -29.304,-32 -13.433,-21.8 -14.956,-49.286 -18.462,-74 -1.243,-8.763 -5.078,-18.152 -4.87,-27 0.304,-12.959 4.548,-26.193 6.444,-39 1.725,-11.661 1.93,-25.971 6.09,-37 4.723,-12.525 16.708,-22.867 23.993,-34 6.19,-9.46 8.745,-20.743 14.823,-30 10.887,-16.581 27.628,-29.611 42.521,-42.424 11.456,-9.856 22.05,-24.397 36,-30.638 14.278,-6.387 28.243,-2.196 43,-3.031 9.837,-0.557 19.28,-4.032 29,-4.814 21.736,-1.747 44.543,2 65,8.907 M 358,422 c -6.645,2.267 -11.862,5.465 -12.815,13 -0.445,3.516 0.97,8.609 -1.074,11.697 -2.302,3.477 -8.493,3.791 -12.111,5.102 -5.716,2.072 -10.597,5.879 -13.633,11.201 -6.018,10.551 -3.213,23.625 1.497,34 1.605,3.534 7.092,9.091 6.523,13 -0.903,6.209 -9.506,13.69 -12.075,20 -7.896,19.4 0.912,43.091 18.688,53.384 17.376,10.062 35.72,5.242 50.035,-7.685 5.058,-4.566 11.27,-18.087 18.966,-17.123 22.397,2.806 51.724,20.567 57.485,43.424 1.772,7.028 2.157,13.875 3.09,21 0.495,3.783 0.237,7.241 -0.305,11 -3.399,23.585 -22.837,19.233 -40.271,23.609 -8.92,2.239 -17.076,6.417 -25,11.005 -4.434,2.567 -10.349,4.919 -13,9.386 16.336,0 33.858,-3.134 50,-1.41 4.245,0.454 11.123,-0.876 14.582,2.013 5.956,4.976 7.436,20.107 8.418,27.397 l 23,-24 c 2.824,8.679 7.342,25.046 17,28 l 16,-28 h 1 c 8.112,11.862 22.454,22.811 37,25 0,-4.945 -1.827,-14.594 1.742,-18.527 2.957,-3.259 9.62,-0.791 13.258,0.026 10.077,2.264 21.687,2.362 32,1.501 v -1 c -1.665,-1.024 -3.411,-1.985 -5.008,-3.115 -14.514,-10.27 10.449,-9.886 16.008,-9.885 -1.697,-4.968 -7.137,-6.111 -12,-6.482 -12.734,-0.973 -24.689,0.575 -37,-4.448 -24.022,-9.8 -25,-30.8 -25,-53.07 0,-8.932 -0.69,-18.289 1.789,-27 9.693,-34.066 61.511,-47.121 92.211,-38.211 15.944,4.628 27.447,22.599 46,12.541 14.108,-7.648 19.143,-22.456 10.532,-36.33 -2.468,-3.977 -10.082,-9.106 -9.843,-14 0.507,-10.372 9.529,-19.348 8.007,-31 -1.723,-13.19 -6.654,-25.66 -16.735,-34.7 -4.867,-4.364 -13.579,-7.42 -17.268,-12.679 -4.644,-6.62 3.001,-16.61 -4.087,-24.316 -4.587,-4.987 -14.293,-3.157 -17.578,-8.533 -2.429,-3.974 -0.641,-10.302 -1.542,-14.772 -1.947,-9.664 -6.051,-18.621 -12.66,-25.999 -13.002,-14.516 -31.964,-19.032 -50.826,-16.715 -5.257,0.646 -13.217,5.676 -18,4.836 -7.359,-1.293 -16.588,-13.797 -23,-18.159 -18.709,-12.728 -41.638,-15.007 -62,-4.538 -10.832,5.569 -21.222,13.605 -27.015,24.575 -2.498,4.729 -5.889,20.851 -10.288,23.083 -3.194,1.62 -7.356,-2.998 -9.697,-4.644 -6.713,-4.719 -14.686,-8.564 -23,-9.251 -20.96,-1.73 -41.46,22.829 -40.87,42.812 0.238,8.088 4.873,16.216 8.87,23 m 116.148,25.719 c 10.243,-1.87 15.837,5.193 15.852,14.281 0.005,2.978 1.357,11.088 -3.148,11.454 -7.384,0.599 -12.91,-11.837 -14.632,-17.454 -0.858,-2.798 -2.118,-7.542 1.928,-8.281 M 531,500 v -24 c 0,-6.583 -2.392,-19.077 1.028,-24.852 5.107,-8.625 24.164,2.087 27.744,7.895 C 568.432,473.097 544.079,498.09 531,500 M 458,495 436,488.529 414,487 c 4.208,-6.728 10.929,-15.363 19,-17.441 14.549,-3.746 22.796,14.115 25,25.441 m 130,29 c -14.018,8.151 -33.657,15.663 -50,16 4.989,-10.476 21.646,-16.682 30.286,-24.514 2.181,-1.977 6.939,-8.803 10.385,-7.734 3.484,1.08 8.049,12.913 9.329,16.248 m -185,4 v -2 c 14.625,-7.787 37.944,-9.811 50.996,2.105 6.628,6.051 11.214,13.907 12.078,22.895 0.245,2.545 1.67,7.316 -1.396,8.759 C 460.103,561.913 452.21,554.282 449,551.793 433.962,540.133 419.911,535.182 403,528 Z"
       id="path927" />
  </g>
</svg>
