<?xml version="1.0" encoding="UTF-8" standalone="no"?>
<!-- Created with Inkscape (http://www.inkscape.org/) -->

<svg
   height="1024"
   width="1024"
   sodipodi:docname="Typography_Canvas.svg"
   version="1.1"
   id="svg347"
   viewBox="0 0 1024 1024"
   inkscape:export-filename="ps_v2.svg"
   inkscape:export-xdpi="96"
   inkscape:export-ydpi="96"
   xmlns:inkscape="http://www.inkscape.org/namespaces/inkscape"
   xmlns:sodipodi="http://sodipodi.sourceforge.net/DTD/sodipodi-0.dtd"
   xmlns="http://www.w3.org/2000/svg"
   xmlns:svg="http://www.w3.org/2000/svg"
   xmlns:rdf="http://www.w3.org/1999/02/22-rdf-syntax-ns#"
   xmlns:cc="http://creativecommons.org/ns#"
   xmlns:dc="http://purl.org/dc/elements/1.1/">
  <sodipodi:namedview
     id="base"
     pagecolor="#ffffff"
     bordercolor="#000000"
     borderopacity="0.3"
     inkscape:pageopacity="0.0"
     inkscape:pageshadow="2"
     inkscape:zoom="0.5"
     inkscape:cx="500"
     inkscape:cy="500"
     inkscape:document-units="px"
     inkscape:current-layer="layer1"
     showgrid="false"
     showguides="true"
     inkscape:window-width="1280"
     inkscape:window-height="737"
     inkscape:window-x="0"
     inkscape:window-y="0"
     inkscape:window-maximized="1"
     showborder="true"
     inkscape:showpageshadow="false"
     inkscape:pagecheckerboard="0"
     inkscape:deskcolor="#d1d1d1">
    <sodipodi:guide
       id="guide_baseline"
       inkscape:label="baseline"
       position="0,277"
       orientation="0,1"
       inkscape:locked="false" />
    <sodipodi:guide
       id="guide_ascender"
       inkscape:label="ascender"
       position="0,969"
       orientation="0,1"
       inkscape:locked="false" />
    <sodipodi:guide
       id="guide_caps"
       inkscape:label="caps"
       position="0,920"
       orientation="0,1"
       inkscape:locked="false" />
    <sodipodi:guide
       id="guide_xheight"
       inkscape:label="xheight"
       position="0,753"
       orientation="0,1"
       inkscape:locked="false" />
    <sodipodi:guide
       id="guide_descender"
       inkscape:label="descender"
       position="0,52"
       orientation="0,1"
       inkscape:locked="false" />
  </sodipodi:namedview>
  <defs
     id="defs4" />
  <metadata
     id="metadata7">
    <rdf:RDF>
      <cc:Work
         rdf:about="">
        <dc:format>image/svg+xml</dc:format>
        <dc:type
           rdf:resource="http://purl.org/dc/dcmitype/StillImage" />
      </cc:Work>
    </rdf:RDF>
  </metadata>
  <g
     id="layer1"
     inkscape:groupmode="layer"
     inkscape:label="Layer 1">
    <path
       style="display:none;fill:#070504;stroke:none"
       d="m 513,0 c -3.936,31.1401 -17.658,58.6522 -23.686,89 -3.019,15.2 -3.557,30.878 -6.831,46 -1.887,8.717 -6.471,17.321 -7.864,26 -0.797,4.964 1.364,9.99 0.917,15 -1.379,15.464 -8.698,28.227 -18.54,39.96 -14.216,16.947 -45.493,19.538 -64.996,28.182 -22.741,10.079 -40.204,25.681 -60,40.38 -10.843,8.051 -23.688,14.061 -33.91,22.857 -20.349,17.51 -29.178,42.325 -41.97,64.621 -7.703,13.428 -16.037,25.501 -21.975,40 -6.219,15.185 -9.336,31.379 -14.17,47 -3.383,10.928 -9.177,22.704 -10.766,34 -2.106,14.979 0.202,31.092 1.621,46 3.822,40.132 15.044,80.93 37.348,115 9.555,14.596 22.723,25.121 34.497,37.83 16.092,17.371 30.428,37.358 49.325,51.87 16.428,12.616 37.632,20.762 56,30.192 18.385,9.438 34.584,15.427 55,18.861 6.861,1.154 21.775,2.159 25.91,8.391 3.548,5.345 3.453,14.648 4.271,20.856 1.313,9.98 3.755,20.089 5.623,30 7.407,39.303 14.835,78.594 26.161,117 3.944,13.376 7.255,37.59 18.035,47 6.976,-20.116 6.851,-42.151 10.324,-63 3.492,-20.959 10.6,-40.364 8.506,-62 -2.216,-22.906 -9.665,-48.054 -5.91,-71 0.983,-6.01 0.659,-13.653 4.088,-18.907 11.952,-18.311 45.815,-12.347 63.992,-17.652 8.964,-2.616 16.085,-8.171 24,-12.865 18.097,-10.731 35.886,-22.035 53,-34.286 25.248,-18.074 43.505,-38.497 61.49,-63.29 8.017,-11.052 17.216,-21.525 23.02,-34 7.258,-15.598 5.08,-34.349 8.7,-51 3.903,-17.953 9.842,-35.622 11.62,-54 0.933,-9.643 -1.372,-18.525 -1.791,-28 -1.99,-45.061 -9.961,-89.88 -34.104,-129 -9.958,-16.136 -21.926,-30.239 -33.735,-45 -20.37,-25.461 -40.094,-48.882 -70.2,-62.917 -23.664,-11.031 -49.097,-18.747 -74,-26.496 -8.495,-2.643 -26.908,-7.148 -32.062,-14.801 -3.151,-4.68 -2.496,-12.388 -3.602,-17.786 -2.572,-12.546 -5.704,-26.118 -5.293,-39 0.302,-9.456 3.714,-18.658 3.942,-28 0.24,-9.804 -5.314,-17.591 -6.779,-27 -2.973,-19.093 -1.196,-39.8787 0.624,-59 1.256,-13.1965 0.486,-31.3683 -3.742,-44 C 523.059,6.93964 519.662,1.03107 513,0 m -44,732 c -2.391,7.133 -17.767,-0.281 -23,-2.228 -22.418,-8.339 -43.552,-19.384 -63,-33.351 -18.837,-13.528 -30.32,-32.334 -44.235,-50.421 -8.853,-11.506 -21.677,-19.622 -29.304,-32 -12.616,-20.474 -14.388,-45.792 -17.732,-69 -1.461,-10.138 -5.299,-20.806 -5.599,-31 -0.523,-17.736 5.778,-38.552 9.066,-56 1.403,-7.447 0.861,-16.124 4.358,-23 8.058,-15.843 22.418,-27.742 30.126,-44 2.78,-5.864 4.225,-12.557 7.799,-18 13.03,-19.846 33.906,-34.756 51.521,-50.286 9.606,-8.468 17.496,-19.594 30,-24 11.949,-4.211 23.753,-1.912 36,-2.057 5.779,-0.069 11.303,-2.79 17,-3.473 10.082,-1.207 20.849,-0.184 31,-0.184 19.499,0 42.419,-3.34 61,3.559 8.567,3.181 13.896,10.3 21.089,15.348 14.496,10.173 29.331,20.089 43.911,30.208 16.387,11.372 35.56,19.434 48.79,34.885 9.775,11.416 9.654,25.269 16.02,38 6.026,12.052 16.858,21.873 20.631,35 4.581,15.939 1.367,35.52 1.563,52 0.462,38.897 3.999,84.633 -12.932,120.999 -4.225,9.075 -16.784,15.385 -24.072,22.087 -21.459,19.732 -41.674,37.697 -66,53.914 -18.257,12.171 -42.323,28.859 -64,33.482 -13.937,2.973 -30.758,0.518 -45,0.518 -10.955,0 -24.478,2.11 -35,-1 M 454,410 v 1 c -11.699,-4.513 -23.796,-9.836 -36,-12.765 -5.425,-1.301 -16.318,-1.644 -20.272,-5.799 C 390.245,384.573 389.697,362.422 387,352 c -11.302,5.177 -21.237,17.604 -29.08,27 -26.534,31.786 -38.225,67.303 -41.01,108 -1.393,20.374 0.44,45.767 16.13,60.907 14.252,13.752 39.425,14.957 57.96,18.693 13.298,2.681 23.532,3.689 30.561,16.4 4.257,7.698 0.553,13.852 0.443,22 -0.29,21.351 -4.003,42.638 -4.004,64 -10e-4,11.548 -0.821,25.119 11.001,31.583 2.188,1.196 4.567,1.851 6.999,2.321 22.987,4.446 13.038,-26.34 13.183,-39.904 0.037,-3.452 1.408,-6.769 2.484,-10 1.915,-5.753 2.47,-12.906 9.333,-14 1.718,12.749 6.503,25.504 9.627,38 1.297,5.19 1.718,13.221 4.687,17.682 2.326,3.496 15.904,3.802 19.083,1.29 2.99,-2.362 2.429,-10.476 2.885,-13.972 1.464,-11.237 0.514,-27.559 5.307,-37.852 1.821,-3.911 8.948,-4.252 11.383,-0.714 1.995,2.898 1.028,8.234 1.028,11.566 v 12 19 c 7.844,0.413 29.556,-12.817 30.852,-21.015 0.857,-5.423 -4.7,-17.327 0.582,-20.957 8.075,-5.551 11.546,7.972 13.211,12.972 3.236,9.719 -0.1,16.339 -0.541,26 -0.364,7.981 2.098,17.584 4.896,25 6.65,-1.29 19.176,-1.473 24.436,-5.938 6.787,-5.76 5.229,-26.193 4.653,-34.062 -1.5,-20.48 -3.089,-40.414 -3.089,-61 0,-8.038 -1.842,-18.9 2.728,-26 6.959,-10.814 19.73,-12.452 31.272,-14.611 20.967,-3.922 47.559,-4.678 62.181,-22.428 11.969,-14.53 12.638,-33.155 11.858,-50.961 -1.49,-34.042 -11.978,-67.396 -31.039,-96 -6.599,-9.903 -15.661,-27.949 -27,-32.928 -5.207,-2.287 -14.276,4.457 -19,6.619 -14.527,6.651 -30.752,14.175 -47,14.309 v -1 c 15.633,-5.691 41.197,-21 49,-36 -49.428,-35.505 -111.667,-44.573 -171,-32.334 -13.098,2.702 -39.173,9.023 -47.258,20.518 -3.542,5.037 -1.426,13.191 -0.792,18.816 2.855,25.342 28.044,44.59 50.05,55 m -58,33.3 c 28.626,-4.125 56.327,16.375 69.218,40.7 11.232,21.192 12.132,45.501 -16.218,49.572 -20.742,2.978 -45.202,1.437 -66,-0.497 -9.819,-0.913 -21.242,-2.436 -28.699,-9.543 -7.903,-7.531 -8.228,-19.439 -6.546,-29.532 3.954,-23.724 23.656,-47.156 48.245,-50.7 m 215,0.075 c 25.174,-1.256 48.249,18.873 56.301,41.625 8.551,24.161 -1.119,47.038 -28.301,48.911 -21.127,1.454 -42.82,0.089 -64,0.089 -8.136,0 -18.388,1.773 -24.895,-4.225 -9.168,-8.449 -6.269,-24.318 -2.749,-34.775 9.018,-26.796 34.82,-50.187 63.644,-51.625 M 497,519 c 4.992,16.889 2.878,39.302 4.09,57 0.274,4.005 -0.607,16.826 3.324,18.94 5.951,3.199 5.56,-14.301 5.871,-16.94 2.278,-19.293 3.28,-38.733 5.715,-58 h 1 c 4.632,16.204 14.811,30.962 19.363,47 2.143,7.553 0.637,17.189 0.637,25 0,5.989 1.766,21.273 -4.419,24.929 -4.425,2.616 -14.775,-3.592 -19.581,-4.465 -12.075,-2.191 -21.744,0.867 -33,4.536 -10.57,-20.161 -5.825,-56.562 2.204,-77 3.012,-7.666 7.02,-17.295 14.796,-21 z"
       id="path425" />
    <path
       style="fill:#070504;stroke:none"
       d="m 513,0 c -3.933,31.1216 -17.657,58.6484 -23.686,89 -3.019,15.2 -3.557,30.878 -6.831,46 -1.887,8.717 -6.471,17.321 -7.864,26 -0.799,4.978 1.436,9.995 1.056,15 -1.161,15.31 -9.016,28.441 -18.679,39.96 -5.62,6.699 -13.217,9.035 -20.996,12.324 -16.713,7.066 -34.318,11.676 -51,18.944 -19.901,8.669 -35.755,24.489 -53,37.294 -10.902,8.095 -23.546,14.225 -33.91,22.996 -20.483,17.333 -29.069,42.259 -41.818,64.482 -7.705,13.429 -16.181,25.481 -22.127,40 -6.219,15.185 -9.336,31.379 -14.17,47 -3.383,10.928 -9.177,22.704 -10.766,34 -2.066,14.691 0.23,30.39 1.621,45 3.739,39.261 14.043,79.324 35.456,113 10.151,15.963 23.84,27.276 36.624,41 16.097,17.28 30.231,37.217 49.09,51.7 13.983,10.738 32.174,18.489 48,26.192 20.263,9.862 37.566,18.616 60,22.355 7.469,1.245 24.398,2.098 28.91,8.897 3.336,5.027 3.474,13.985 4.249,19.856 1.364,10.34 3.712,20.745 5.645,31 7.286,38.658 14.926,77.12 25.617,115 3.901,13.823 7.482,39.32 18.579,49 6.945,-20.025 6.863,-42.227 10.324,-63 3.492,-20.959 10.6,-40.364 8.506,-62 -2.219,-22.934 -9.671,-48.018 -5.91,-71 1.001,-6.12 0.549,-13.551 4.085,-18.907 12.117,-18.348 45.713,-12.31 63.995,-17.652 8.887,-2.596 16.148,-8.208 24,-12.865 18.097,-10.731 35.886,-22.035 53,-34.286 25.243,-18.07 43.511,-38.506 61.49,-63.29 8.017,-11.052 17.216,-21.525 23.02,-34 7.258,-15.598 5.08,-34.349 8.7,-51 3.904,-17.958 9.783,-35.632 11.619,-54 0.964,-9.64 -1.371,-18.529 -1.79,-28 -1.99,-45.061 -9.961,-89.88 -34.104,-129 C 722.912,333.213 686.998,288.6 640,266.255 c -23.962,-11.392 -50.547,-16.049 -75,-26.116 -7.058,-2.906 -20.693,-5.692 -25.062,-12.328 -3.125,-4.747 -2.487,-12.369 -3.602,-17.811 -2.582,-12.594 -5.705,-26.068 -5.293,-39 0.302,-9.456 3.714,-18.658 3.942,-28 0.24,-9.804 -5.314,-17.591 -6.779,-27 -2.973,-19.093 -1.196,-39.8787 0.624,-59 1.256,-13.1965 0.486,-31.3683 -3.742,-44 C 523.059,6.93964 519.662,1.03107 513,0 m 15,295 c -17.329,18.961 -54.342,30.406 -62.528,57 -2.518,8.181 10.942,13.111 15.314,18.04 10.306,11.617 5.114,31.743 -6.79,40.16 -21.278,15.046 -23.173,-16.192 -38.996,-23.797 -12.383,-5.952 -20.422,6.466 -32,4.249 -15.175,-2.906 -21.298,-28.109 -24.475,-40.652 -1.027,-4.055 -3.862,-9.788 -2.748,-13.996 1.886,-7.123 14.114,-13.92 19.223,-19.005 5.318,-5.293 10.529,-11.094 17,-15.023 15.019,-9.117 30.82,-4.18 47,-5.084 22.93,-1.281 45.843,-1.892 69,-1.892 m 150,83 c -28.002,-0.578 -64.958,-17.907 -91.995,-4.431 -15.917,7.933 7.798,35.749 -14.006,42.963 -2.241,0.741 -4.631,1.245 -6.999,1.078 -3.066,-0.217 -6.189,-1.299 -9,-2.486 -4.161,-1.756 -11.662,-4.72 -13.357,-9.308 -3.478,-9.416 4.199,-22.02 0.607,-32.816 -3.997,-12.013 -16.317,-17.323 -22.176,-28 -7.469,-13.611 4.419,-37.99 14.595,-47.682 8.006,-7.626 30.443,4.896 38.331,8.94 21.959,11.256 40.296,26.676 61,39.789 14.709,9.316 32.716,17.353 43,31.953 M 373,338 c -1.737,21.829 -9.086,43.13 -11,65 -0.684,7.818 -1.833,18.813 2.14,25.995 5.965,10.786 15.813,3.344 24.86,3.135 11.876,-0.274 25.05,14.222 24.739,25.87 -0.091,3.429 -1.145,6.895 -2.535,10 -1.784,3.989 -4.097,10.889 -8.309,12.882 -9.108,4.309 -20.417,-8.035 -30.895,-3.515 -11.48,4.953 -13.149,18.479 -23.015,24.74 -12.309,7.811 -33.091,-4.742 -43.985,-10.365 -3.722,-1.921 -8.551,-3.887 -11.667,-6.707 -3.093,-2.8 -1.286,-7.482 -0.76,-11.035 1.333,-9.014 2.867,-17.977 4.156,-27 2.404,-16.827 14.607,-27.433 23.924,-41 16.522,-24.059 23.977,-53.302 52.347,-68 m 309,45 10.876,30 20.934,35 2.19,32 1,41 c -18.785,-15.525 -24.323,-44.81 -48,-55.951 -25.458,-11.978 -30.955,37.128 -53.96,17.611 -2.551,-2.165 -4.465,-4.842 -6.225,-7.66 -2.216,-3.548 -4.07,-6.873 -4.815,-11 9.593,-5.518 28.533,-15.746 29.606,-28 0.877,-10.008 -9.544,-23.59 -4.288,-32.829 C 637.064,389.554 668.016,385.885 682,383 m -183,32.286 c 10.254,-1.227 20.991,0.068 31,2.365 77.152,17.706 94.701,123.806 31,167.461 -12.732,8.725 -27.861,12.81 -43,14.602 C 439.811,608.97 384.852,517.858 431.489,454 c 6.863,-9.397 15.661,-17.968 25.511,-24.188 13.004,-8.213 26.75,-12.703 42,-14.526 m 0,10.139 c -13.332,1.815 -25.662,5.735 -37,13.119 -9.119,5.938 -16.973,13.673 -23.359,22.456 -28.625,39.372 -13.557,96.484 28.359,119.652 15.712,8.685 35.285,11.237 53,9.062 12.159,-1.494 23.595,-5.082 34,-11.668 60.349,-38.204 43.234,-129.502 -23,-149.702 -10.156,-3.097 -21.445,-4.356 -32,-2.919 M 291,488 h 1 c 12.327,18.122 24.872,38.133 40.039,54 5.924,6.197 12.975,13.903 21.961,15.226 19.862,2.924 21.57,-31.843 44,-21.877 2.414,1.072 4.825,2.429 6.815,4.18 2.066,1.819 3.582,4.107 4.952,6.472 10.812,18.67 -11.407,20.278 -18.767,34.999 -4.991,9.982 2.118,20.053 -0.569,30 -4.294,15.893 -37.479,28.032 -52.431,28.967 -4.791,0.299 -7.888,-3.896 -10.996,-6.952 C 319.803,625.935 312.73,619.973 307.731,611 295.17,588.452 294.992,561.754 290.537,537 287.693,521.198 282.851,503.301 291,488 m 352,190 c 2.594,-20.418 6.862,-40.529 9.286,-61 1.013,-8.559 2.211,-23.408 -3.14,-30.852 -4.727,-6.575 -14.907,-0.917 -21.146,-0.325 -11.832,1.122 -29.749,-12.132 -28.88,-24.823 0.227,-3.305 1.716,-6.162 3.305,-9 1.884,-3.365 4.022,-9.12 7.76,-10.799 9.219,-4.139 23.07,5.873 33.815,2.034 12.11,-4.326 11.798,-17.85 21.043,-24.582 11.121,-8.099 40.628,6.462 49.639,14.313 3.576,3.116 1.685,7.989 1.407,12.034 -0.681,9.953 -0.396,20.142 -2.009,30 -2.628,16.06 -3.356,34.371 -11.42,48.996 -4.131,7.492 -14.238,12.884 -20.66,18.429 -12.858,11.103 -24.326,27.093 -39,35.575 m -168,51 c 19.157,-11.02 38.342,-26.225 55,-40.718 7.622,-6.632 17.119,-14.512 20.782,-24.282 3.746,-9.993 -11.812,-15.329 -16.557,-22.039 -13.87,-19.613 6.94,-35.594 23.775,-39.961 5.114,12.284 15.17,31.987 31,30.903 8.195,-0.561 15.57,-8.74 23.985,-5.544 12.953,4.92 18.157,25.951 22.016,37.641 1.336,4.047 4.364,9.613 3.588,13.96 -1.081,6.049 -11.908,10.919 -16.589,14.04 -16.656,11.105 -33.551,21.926 -52,29.85 -13.804,5.928 -27.33,7.217 -42,9.45 -21.098,3.211 -41.53,5.481 -63,3.057 -12.135,-1.37 -24.975,-7.587 -36,-12.496 -38.019,-16.929 -70.457,-42.006 -91,-78.861 26.704,1.147 63.545,18.539 88.999,4.583 18.026,-9.884 -1.214,-38.694 20.001,-44.656 3.475,-0.976 7.393,-1.664 11,-1.823 2.721,-0.12 5.398,0.324 8,1.106 20.411,6.132 1.471,23.419 5.8,37.79 4.108,13.635 19.789,17.659 25.11,30 2.546,5.905 0.022,13.342 -2.103,19 -5.217,13.892 -12.635,26.118 -19.807,39 m -1,0 -1,2 z"
       id="path534" />
  </g>
</svg>
