<?xml version="1.0" encoding="UTF-8" standalone="no"?>
<!-- Created with Inkscape (http://www.inkscape.org/) -->

<svg
   height="1024"
   width="1024"
   sodipodi:docname="Typography_Canvas.svg"
   version="1.1"
   id="svg347"
   viewBox="0 0 1024 1024"
   xmlns:inkscape="http://www.inkscape.org/namespaces/inkscape"
   xmlns:sodipodi="http://sodipodi.sourceforge.net/DTD/sodipodi-0.dtd"
   xmlns="http://www.w3.org/2000/svg"
   xmlns:svg="http://www.w3.org/2000/svg"
   xmlns:rdf="http://www.w3.org/1999/02/22-rdf-syntax-ns#"
   xmlns:cc="http://creativecommons.org/ns#"
   xmlns:dc="http://purl.org/dc/elements/1.1/">
  <sodipodi:namedview
     id="base"
     pagecolor="#ffffff"
     bordercolor="#000000"
     borderopacity="0.3"
     inkscape:pageopacity="0.0"
     inkscape:pageshadow="2"
     inkscape:zoom="0.5"
     inkscape:cx="500"
     inkscape:cy="500"
     inkscape:document-units="px"
     inkscape:current-layer="layer1"
     showgrid="false"
     showguides="true"
     inkscape:window-width="1280"
     inkscape:window-height="737"
     inkscape:window-x="0"
     inkscape:window-y="0"
     inkscape:window-maximized="1"
     showborder="true"
     inkscape:showpageshadow="false"
     inkscape:pagecheckerboard="0"
     inkscape:deskcolor="#d1d1d1">
    <sodipodi:guide
       id="guide_baseline"
       inkscape:label="baseline"
       position="0,277"
       orientation="0,1"
       inkscape:locked="false" />
    <sodipodi:guide
       id="guide_ascender"
       inkscape:label="ascender"
       position="0,969"
       orientation="0,1"
       inkscape:locked="false" />
    <sodipodi:guide
       id="guide_caps"
       inkscape:label="caps"
       position="0,920"
       orientation="0,1"
       inkscape:locked="false" />
    <sodipodi:guide
       id="guide_xheight"
       inkscape:label="xheight"
       position="0,753"
       orientation="0,1"
       inkscape:locked="false" />
    <sodipodi:guide
       id="guide_descender"
       inkscape:label="descender"
       position="0,52"
       orientation="0,1"
       inkscape:locked="false" />
  </sodipodi:namedview>
  <defs
     id="defs4" />
  <metadata
     id="metadata7">
    <rdf:RDF>
      <cc:Work
         rdf:about="">
        <dc:format>image/svg+xml</dc:format>
        <dc:type
           rdf:resource="http://purl.org/dc/dcmitype/StillImage" />
      </cc:Work>
    </rdf:RDF>
  </metadata>
  <g
     id="layer1"
     inkscape:groupmode="layer"
     inkscape:label="Layer 1">
    <path
       style="fill:#070504;stroke:none"
       d="m 513,0 c -3.936,31.1401 -17.658,58.6522 -23.686,89 -3.019,15.2 -3.557,30.878 -6.831,46 -1.887,8.717 -6.471,17.321 -7.864,26 -0.797,4.964 1.364,9.99 0.917,15 -1.379,15.464 -8.698,28.227 -18.54,39.96 -14.216,16.947 -45.493,19.538 -64.996,28.182 -22.741,10.079 -40.204,25.681 -60,40.38 -10.843,8.051 -23.688,14.061 -33.91,22.857 -20.349,17.51 -29.178,42.325 -41.97,64.621 -7.703,13.428 -16.037,25.501 -21.975,40 -6.219,15.185 -9.336,31.379 -14.17,47 -3.383,10.928 -9.177,22.704 -10.766,34 -2.106,14.979 0.202,31.092 1.621,46 3.822,40.132 15.044,80.93 37.348,115 9.555,14.596 22.723,25.121 34.497,37.83 16.092,17.371 30.428,37.358 49.325,51.87 16.428,12.616 37.632,20.762 56,30.192 18.385,9.438 34.584,15.427 55,18.861 6.861,1.154 21.775,2.159 25.91,8.391 3.548,5.345 3.453,14.648 4.271,20.856 1.313,9.98 3.755,20.089 5.623,30 7.407,39.303 14.835,78.594 26.161,117 3.944,13.376 7.255,37.59 18.035,47 6.976,-20.116 6.851,-42.151 10.324,-63 3.492,-20.959 10.6,-40.364 8.506,-62 -2.216,-22.906 -9.665,-48.054 -5.91,-71 0.983,-6.01 0.659,-13.653 4.088,-18.907 11.952,-18.311 45.815,-12.347 63.992,-17.652 8.964,-2.616 16.085,-8.171 24,-12.865 18.097,-10.731 35.886,-22.035 53,-34.286 25.248,-18.074 43.505,-38.497 61.49,-63.29 8.017,-11.052 17.216,-21.525 23.02,-34 7.258,-15.598 5.08,-34.349 8.7,-51 3.903,-17.953 9.842,-35.622 11.62,-54 0.933,-9.643 -1.372,-18.525 -1.791,-28 -1.99,-45.061 -9.961,-89.88 -34.104,-129 -9.958,-16.136 -21.926,-30.239 -33.735,-45 -20.37,-25.461 -40.094,-48.882 -70.2,-62.917 -23.664,-11.031 -49.097,-18.747 -74,-26.496 -8.495,-2.643 -26.908,-7.148 -32.062,-14.801 -3.151,-4.68 -2.496,-12.388 -3.602,-17.786 -2.572,-12.546 -5.704,-26.118 -5.293,-39 0.302,-9.456 3.714,-18.658 3.942,-28 0.24,-9.804 -5.314,-17.591 -6.779,-27 -2.973,-19.093 -1.196,-39.8787 0.624,-59 1.256,-13.1965 0.486,-31.3683 -3.742,-44 C 523.059,6.93964 519.662,1.03107 513,0 m -44,732 c -2.391,7.133 -17.767,-0.281 -23,-2.228 -22.418,-8.339 -43.552,-19.384 -63,-33.351 -18.837,-13.528 -30.32,-32.334 -44.235,-50.421 -8.853,-11.506 -21.677,-19.622 -29.304,-32 -12.616,-20.474 -14.388,-45.792 -17.732,-69 -1.461,-10.138 -5.299,-20.806 -5.599,-31 -0.523,-17.736 5.778,-38.552 9.066,-56 1.403,-7.447 0.861,-16.124 4.358,-23 8.058,-15.843 22.418,-27.742 30.126,-44 2.78,-5.864 4.225,-12.557 7.799,-18 13.03,-19.846 33.906,-34.756 51.521,-50.286 9.606,-8.468 17.496,-19.594 30,-24 11.949,-4.211 23.753,-1.912 36,-2.057 5.779,-0.069 11.303,-2.79 17,-3.473 10.082,-1.207 20.849,-0.184 31,-0.184 19.499,0 42.419,-3.34 61,3.559 8.567,3.181 13.896,10.3 21.089,15.348 14.496,10.173 29.331,20.089 43.911,30.208 16.387,11.372 35.56,19.434 48.79,34.885 9.775,11.416 9.654,25.269 16.02,38 6.026,12.052 16.858,21.873 20.631,35 4.581,15.939 1.367,35.52 1.563,52 0.462,38.897 3.999,84.633 -12.932,120.999 -4.225,9.075 -16.784,15.385 -24.072,22.087 -21.459,19.732 -41.674,37.697 -66,53.914 -18.257,12.171 -42.323,28.859 -64,33.482 -13.937,2.973 -30.758,0.518 -45,0.518 -10.955,0 -24.478,2.11 -35,-1 M 454,410 v 1 c -11.699,-4.513 -23.796,-9.836 -36,-12.765 -5.425,-1.301 -16.318,-1.644 -20.272,-5.799 C 390.245,384.573 389.697,362.422 387,352 c -11.302,5.177 -21.237,17.604 -29.08,27 -26.534,31.786 -38.225,67.303 -41.01,108 -1.393,20.374 0.44,45.767 16.13,60.907 14.252,13.752 39.425,14.957 57.96,18.693 13.298,2.681 23.532,3.689 30.561,16.4 4.257,7.698 0.553,13.852 0.443,22 -0.29,21.351 -4.003,42.638 -4.004,64 -10e-4,11.548 -0.821,25.119 11.001,31.583 2.188,1.196 4.567,1.851 6.999,2.321 22.987,4.446 13.038,-26.34 13.183,-39.904 0.037,-3.452 1.408,-6.769 2.484,-10 1.915,-5.753 2.47,-12.906 9.333,-14 1.718,12.749 6.503,25.504 9.627,38 1.297,5.19 1.718,13.221 4.687,17.682 2.326,3.496 15.904,3.802 19.083,1.29 2.99,-2.362 2.429,-10.476 2.885,-13.972 1.464,-11.237 0.514,-27.559 5.307,-37.852 1.821,-3.911 8.948,-4.252 11.383,-0.714 1.995,2.898 1.028,8.234 1.028,11.566 v 12 19 c 7.844,0.413 29.556,-12.817 30.852,-21.015 0.857,-5.423 -4.7,-17.327 0.582,-20.957 8.075,-5.551 11.546,7.972 13.211,12.972 3.236,9.719 -0.1,16.339 -0.541,26 -0.364,7.981 2.098,17.584 4.896,25 6.65,-1.29 19.176,-1.473 24.436,-5.938 6.787,-5.76 5.229,-26.193 4.653,-34.062 -1.5,-20.48 -3.089,-40.414 -3.089,-61 0,-8.038 -1.842,-18.9 2.728,-26 6.959,-10.814 19.73,-12.452 31.272,-14.611 20.967,-3.922 47.559,-4.678 62.181,-22.428 11.969,-14.53 12.638,-33.155 11.858,-50.961 -1.49,-34.042 -11.978,-67.396 -31.039,-96 -6.599,-9.903 -15.661,-27.949 -27,-32.928 -5.207,-2.287 -14.276,4.457 -19,6.619 -14.527,6.651 -30.752,14.175 -47,14.309 v -1 c 15.633,-5.691 41.197,-21 49,-36 -49.428,-35.505 -111.667,-44.573 -171,-32.334 -13.098,2.702 -39.173,9.023 -47.258,20.518 -3.542,5.037 -1.426,13.191 -0.792,18.816 2.855,25.342 28.044,44.59 50.05,55 m -58,33.3 c 28.626,-4.125 56.327,16.375 69.218,40.7 11.232,21.192 12.132,45.501 -16.218,49.572 -20.742,2.978 -45.202,1.437 -66,-0.497 -9.819,-0.913 -21.242,-2.436 -28.699,-9.543 -7.903,-7.531 -8.228,-19.439 -6.546,-29.532 3.954,-23.724 23.656,-47.156 48.245,-50.7 m 215,0.075 c 25.174,-1.256 48.249,18.873 56.301,41.625 8.551,24.161 -1.119,47.038 -28.301,48.911 -21.127,1.454 -42.82,0.089 -64,0.089 -8.136,0 -18.388,1.773 -24.895,-4.225 -9.168,-8.449 -6.269,-24.318 -2.749,-34.775 9.018,-26.796 34.82,-50.187 63.644,-51.625 M 497,519 c 4.992,16.889 2.878,39.302 4.09,57 0.274,4.005 -0.607,16.826 3.324,18.94 5.951,3.199 5.56,-14.301 5.871,-16.94 2.278,-19.293 3.28,-38.733 5.715,-58 h 1 c 4.632,16.204 14.811,30.962 19.363,47 2.143,7.553 0.637,17.189 0.637,25 0,5.989 1.766,21.273 -4.419,24.929 -4.425,2.616 -14.775,-3.592 -19.581,-4.465 -12.075,-2.191 -21.744,0.867 -33,4.536 -10.57,-20.161 -5.825,-56.562 2.204,-77 3.012,-7.666 7.02,-17.295 14.796,-21 z"
       id="path425" />
  </g>
</svg>
